<svg width="207" height="111" viewBox="0 0 207 111" fill="none" xmlns="http://www.w3.org/2000/svg">
<g clip-path="url(#clip0)">
<path d="M-3.5497 125.613C-3.5497 125.613 -28.3408 101.636 -3.19538 66.9253C19.2727 35.91 2.49633 21.0921 25.5567 5.97934C48.8663 -9.29663 68.6995 0.00724563 91.0113 11.8163C113.323 23.6254 144.135 -4.64513 177.426 10.3851C210.718 25.4146 205.931 48.3886 197.696 72.0085C190.744 91.9483 211.883 106.356 200.352 125.646C200.352 125.646 -4.25834 124.897 -3.5497 125.613Z" fill="#EBF3FA"/>
<path opacity="0.4" d="M124.253 38.5853C124.253 38.5853 127.763 23.7147 139.488 22.108C139.488 22.108 141.769 21.8308 142.522 24.3693C143.275 26.9087 138.741 26.9157 135.936 27.9292C133.131 28.9427 126.587 33.2537 124.253 38.5853Z" fill="#CDDFF9"/>
<path opacity="0.4" d="M124.469 41.4041C124.469 41.4041 131.191 27.7084 142.973 28.8C142.973 28.8 145.258 29.0466 145.428 31.6922C145.598 34.3369 141.178 33.3164 138.219 33.6682C135.261 34.0192 127.927 36.7368 124.469 41.4041Z" fill="#CDDFF9"/>
<path d="M159.85 98.4414C159.85 98.4414 163.36 83.5709 175.085 81.9642C175.085 81.9642 177.366 81.6869 178.119 84.2264C178.872 86.7658 174.338 86.7728 171.533 87.7863C168.728 88.7989 162.184 93.1099 159.85 98.4414Z" fill="#CDDFF9"/>
<path d="M160.229 93.5638C160.229 93.5638 158.305 78.4001 168.708 72.7062C168.708 72.7062 170.745 71.6313 172.338 73.7372C173.932 75.8432 169.694 77.47 167.425 79.4215C165.156 81.3721 160.545 87.7426 160.229 93.5638Z" fill="#DFEBFD"/>
<path d="M195.419 96.698C194.098 91.0242 184.637 92.4606 184.637 92.4606C184.637 92.4606 177.925 102.083 176.059 102.254C174.194 102.425 180.206 92.8959 180.206 92.8959C176.62 92.422 167.301 96.5611 167.301 96.5611C167.301 96.5611 167.498 108.06 165.65 107.763C163.8 107.465 165.989 97.5719 165.989 97.5719C162.472 98.5073 159.085 102.497 159.085 102.497C154.799 109.036 163.341 114.253 163.341 114.253C163.341 114.253 163.325 118.239 160.734 122.725C160.734 122.725 160.156 123.55 159.549 124.964L160.498 124.997C160.584 124.742 160.678 124.496 160.78 124.261C160.78 124.259 160.781 124.259 160.782 124.257C160.784 124.253 160.785 124.25 160.786 124.246C160.857 124.101 160.957 123.893 161.082 123.64C161.082 123.64 161.082 123.639 161.082 123.639C161.082 123.638 161.083 123.638 161.083 123.638C161.392 123.075 161.603 122.659 161.736 122.357C161.736 122.356 161.737 122.355 161.737 122.354C162.666 120.585 163.996 118.285 164.848 117.821C164.848 117.821 164.748 117.669 164.66 117.375C164.719 117.517 164.783 117.665 164.848 117.821C166.356 121.391 174.461 122.254 179.02 121.47C183.578 120.687 181.648 119.332 179.28 117.157C176.911 114.983 171.786 115.36 170.304 114.489C168.823 113.617 171.056 112.872 174.066 113.209C177.075 113.546 178.483 116.644 183.343 117.278C188.203 117.913 192.225 108.785 192.225 108.785C188.824 109.725 182.851 107.645 182.657 106.466C182.464 105.287 191.398 105.708 192.803 105.404C194.21 105.101 196.74 102.373 195.419 96.698Z" fill="#DFEBFD"/>
<path d="M21.4438 46.7734C22.7655 41.0987 32.2262 42.536 32.2262 42.536C32.2262 42.536 38.9383 52.1584 40.8037 52.3295C42.6691 52.5006 36.6569 42.9713 36.6569 42.9713C40.2436 42.4974 49.5618 46.6365 49.5618 46.6365C49.5618 46.6365 49.3638 58.1358 51.2136 57.8383C53.0634 57.5409 50.874 47.6473 50.874 47.6473C54.3912 48.5827 57.7781 52.5726 57.7781 52.5726C62.0638 59.1115 53.5219 64.3281 53.5219 64.3281C53.5219 64.3281 53.5384 68.3145 56.1289 72.8002C56.1289 72.8002 56.7073 73.625 57.3143 75.0395L56.3651 75.0719C56.2792 74.8175 56.1854 74.5718 56.0829 74.3366C56.0829 74.3349 56.082 74.334 56.0812 74.3322C56.0794 74.3287 56.0786 74.3252 56.0768 74.3217C56.0065 74.176 55.9066 73.9681 55.7815 73.7154C55.7815 73.7154 55.7815 73.7145 55.7807 73.7145C55.7807 73.7136 55.7798 73.7136 55.7798 73.7136C55.4707 73.1503 55.2605 72.7343 55.1268 72.4325C55.1259 72.4316 55.1259 72.4307 55.1259 72.4299C54.1967 70.6609 52.8662 68.3601 52.0152 67.8968C52.0152 67.8968 52.115 67.7441 52.2036 67.4502C52.1437 67.5923 52.0812 67.7406 52.0152 67.8968C50.5076 71.4664 42.4016 72.329 37.8432 71.5454C33.2848 70.7627 35.2153 69.4061 37.5836 67.2326C39.9518 65.0582 45.0773 65.4355 46.5588 64.5642C48.0403 63.6928 45.8076 62.9479 42.7976 63.2848C39.7876 63.6218 38.3799 66.7193 33.5202 67.3537C28.6604 67.9881 24.6378 58.8606 24.6378 58.8606C28.0395 59.8004 34.0126 57.7207 34.2062 56.5414C34.399 55.3621 25.4655 55.7833 24.0603 55.4797C22.6535 55.1761 20.1229 52.448 21.4438 46.7734Z" fill="#DFEBFD"/>
<path d="M78.981 19.0406C81.7582 13.6643 90.9297 17.5734 90.9297 17.5734C90.9297 17.5734 95.245 29.0192 97.0817 29.6765C98.9184 30.3337 95.2849 19.1643 95.2849 19.1643C99.0218 19.6197 107.36 26.2157 107.36 26.2157C107.36 26.2157 104.232 37.7571 106.172 37.9379C108.113 38.1187 108.426 27.5758 108.426 27.5758C111.734 29.4334 114.132 34.3359 114.132 34.3359C116.786 42.0418 106.846 45.0788 106.846 45.0788C106.846 45.0788 105.848 49.102 107.316 54.2976C107.316 54.2976 107.689 55.2794 107.941 56.8633L106.975 56.6492C106.953 56.3701 106.921 56.099 106.878 55.8349C106.878 55.8331 106.878 55.8314 106.877 55.8305C106.876 55.827 106.875 55.8226 106.875 55.8191C106.842 55.6541 106.793 55.419 106.732 55.1312V55.1303C106.732 55.1294 106.731 55.1294 106.732 55.1285C106.563 54.4801 106.458 54.0062 106.399 53.6675C106.399 53.6666 106.399 53.6658 106.399 53.664C105.913 51.6388 105.158 48.9739 104.418 48.2851C104.418 48.2851 104.558 48.157 104.722 47.8841C104.625 48.0122 104.524 48.1456 104.418 48.2851C101.989 51.4914 93.5975 50.2524 89.2024 48.2781C84.8064 46.3037 87.0982 45.4386 90.0387 43.8626C92.9792 42.2867 98.0509 44.0004 99.766 43.5072C101.481 43.0141 99.4204 41.683 96.3001 41.2398C93.1798 40.7967 90.9723 43.5529 85.9111 42.929C80.8498 42.3051 79.1199 32.0571 79.1199 32.0571C82.3097 33.8892 88.8611 33.3461 89.3561 32.2071C89.8511 31.0681 80.7378 29.1702 79.3987 28.498C78.0596 27.8259 76.2029 24.4169 78.981 19.0406Z" fill="#DFEBFD"/>
<g opacity="0.5">
<path opacity="0.5" d="M189.183 27.0703L194.548 47.8077C194.785 48.7229 194.237 49.667 193.332 49.9066L157.328 59.4158C156.422 59.6554 155.488 59.1017 155.251 58.1865L149.886 37.4491C149.65 36.5339 150.197 35.5897 151.102 35.3502L187.106 25.8409C188.011 25.6023 188.946 26.1551 189.183 27.0703Z" fill="#AAC9F5"/>
<g opacity="0.5">
<path opacity="0.5" d="M174.254 50.5145L164.659 53.0486C164.252 53.1557 163.834 52.9082 163.728 52.4975L163.703 52.4045C163.597 51.9939 163.842 51.5709 164.249 51.4639L173.844 48.9297C174.25 48.8227 174.669 49.0701 174.775 49.4808L174.799 49.5738C174.905 49.9836 174.66 50.4074 174.254 50.5145Z" fill="#CDE0FB"/>
<g opacity="0.5">
<path opacity="0.5" d="M169.234 41.0509C169.325 41.4045 169.339 41.7098 169.275 41.9678C169.195 42.2934 168.996 42.4987 168.675 42.5829C168.355 42.6672 168.081 42.5873 167.854 42.3434C167.673 42.1495 167.538 41.8766 167.446 41.5229C167.355 41.1693 167.34 40.8648 167.402 40.6104C167.482 40.2848 167.683 40.0795 168.006 39.9944C168.329 39.9093 168.603 39.9891 168.831 40.2331C169.008 40.4243 169.142 40.6972 169.234 41.0509ZM168.793 41.1649C168.736 40.9429 168.663 40.7639 168.574 40.6262C168.439 40.42 168.284 40.3401 168.111 40.3857C167.933 40.4331 167.835 40.5779 167.818 40.8218C167.805 40.9868 167.828 41.1807 167.886 41.4045C168.042 42.0073 168.272 42.2688 168.577 42.1881C168.753 42.1416 168.849 41.9941 168.864 41.7458C168.875 41.5852 168.851 41.3913 168.793 41.1649Z" fill="#CDE0FB"/>
<path opacity="0.5" d="M171.204 40.5308C171.295 40.8845 171.309 41.1898 171.246 41.4478C171.166 41.7733 170.966 41.9787 170.646 42.0629C170.325 42.1471 170.052 42.0673 169.824 41.8234C169.643 41.6294 169.508 41.3565 169.417 41.0029C169.326 40.6493 169.311 40.3448 169.372 40.0903C169.452 39.7648 169.653 39.5595 169.976 39.4744C170.299 39.3892 170.573 39.4691 170.801 39.713C170.978 39.9043 171.112 40.1772 171.204 40.5308ZM170.763 40.6449C170.705 40.4229 170.633 40.2439 170.544 40.1061C170.408 39.8999 170.254 39.8201 170.08 39.8657C169.902 39.9131 169.805 40.0579 169.788 40.3018C169.775 40.4668 169.797 40.6607 169.855 40.8845C170.012 41.4873 170.242 41.7488 170.547 41.6689C170.723 41.6224 170.818 41.475 170.834 41.2267C170.845 41.0652 170.822 40.8713 170.763 40.6449Z" fill="#CDE0FB"/>
<path opacity="0.5" d="M174.19 39.742C174.281 40.0956 174.295 40.401 174.231 40.659C174.151 40.9845 173.952 41.1898 173.631 41.2741C173.311 41.3583 173.037 41.2784 172.81 41.0345C172.629 40.8406 172.494 40.5677 172.402 40.2141C172.311 39.8605 172.297 39.5569 172.358 39.3015C172.438 38.976 172.64 38.7707 172.962 38.6855C173.285 38.6004 173.559 38.6803 173.787 38.9242C173.964 39.1164 174.099 39.3884 174.19 39.742ZM173.749 39.857C173.692 39.635 173.619 39.456 173.531 39.3182C173.395 39.112 173.241 39.0321 173.067 39.0778C172.889 39.1251 172.792 39.2699 172.774 39.5139C172.761 39.6788 172.784 39.8727 172.842 40.0965C172.998 40.6993 173.228 40.9608 173.533 40.881C173.709 40.8345 173.805 40.687 173.821 40.4387C173.831 40.2773 173.808 40.0833 173.749 39.857Z" fill="#CDE0FB"/>
<path opacity="0.5" d="M176.16 39.2215C176.251 39.5751 176.265 39.8805 176.202 40.1385C176.122 40.464 175.922 40.6694 175.602 40.7536C175.281 40.8378 175.008 40.758 174.78 40.514C174.6 40.3201 174.464 40.0472 174.373 39.6936C174.282 39.34 174.267 39.0355 174.329 38.781C174.408 38.4555 174.61 38.2501 174.932 38.165C175.255 38.0799 175.53 38.1598 175.757 38.4037C175.933 38.5959 176.068 38.8679 176.16 39.2215ZM175.719 39.3365C175.662 39.1145 175.589 38.9355 175.5 38.7977C175.365 38.5915 175.21 38.5116 175.036 38.5573C174.858 38.6046 174.761 38.7494 174.744 38.9934C174.731 39.1583 174.753 39.3523 174.811 39.576C174.968 40.1788 175.198 40.4403 175.503 40.3596C175.679 40.3131 175.775 40.1657 175.79 39.9174C175.801 39.7559 175.778 39.562 175.719 39.3365Z" fill="#CDE0FB"/>
<path opacity="0.5" d="M178.13 38.701C178.221 39.0546 178.235 39.36 178.171 39.618C178.092 39.9435 177.892 40.1488 177.571 40.2331C177.251 40.3173 176.977 40.2375 176.75 39.9935C176.569 39.7996 176.434 39.5267 176.343 39.1731C176.251 38.8195 176.237 38.515 176.298 38.2605C176.378 37.935 176.58 37.7296 176.902 37.6445C177.225 37.5594 177.499 37.6393 177.727 37.8832C177.904 38.0754 178.039 38.3474 178.13 38.701ZM177.689 38.816C177.632 38.594 177.559 38.4149 177.471 38.2772C177.335 38.071 177.181 37.9911 177.007 38.0368C176.829 38.0841 176.732 38.2289 176.714 38.4729C176.701 38.6378 176.724 38.8318 176.782 39.0555C176.938 39.6583 177.168 39.9198 177.473 39.84C177.649 39.7935 177.745 39.646 177.761 39.3977C177.772 39.2354 177.748 39.0415 177.689 38.816Z" fill="#CDE0FB"/>
<path opacity="0.5" d="M180.1 38.1807C180.191 38.5344 180.205 38.8397 180.142 39.0977C180.062 39.4232 179.862 39.6286 179.542 39.7128C179.221 39.7971 178.948 39.7172 178.72 39.4733C178.54 39.2793 178.404 39.0064 178.313 38.6528C178.222 38.2992 178.207 37.9947 178.269 37.7402C178.349 37.4147 178.55 37.2094 178.872 37.1243C179.195 37.0391 179.47 37.119 179.697 37.3629C179.874 37.5542 180.009 37.8271 180.1 38.1807ZM179.66 38.2948C179.603 38.0728 179.53 37.8938 179.441 37.756C179.306 37.5498 179.151 37.47 178.977 37.5156C178.799 37.563 178.702 37.7078 178.685 37.9517C178.672 38.1167 178.694 38.3106 178.752 38.5344C178.909 39.1372 179.139 39.3987 179.444 39.3188C179.62 39.2723 179.716 39.1249 179.731 38.8766C179.742 38.7151 179.718 38.5212 179.66 38.2948Z" fill="#CDE0FB"/>
<path opacity="0.5" d="M183.086 37.3917C183.177 37.7453 183.191 38.0507 183.128 38.3087C183.048 38.6342 182.848 38.8395 182.528 38.9238C182.207 39.008 181.934 38.9282 181.706 38.6842C181.525 38.4903 181.39 38.2174 181.299 37.8638C181.208 37.5101 181.193 37.2057 181.254 36.9512C181.334 36.6256 181.536 36.4203 181.858 36.3352C182.181 36.2501 182.456 36.3299 182.683 36.5739C182.86 36.766 182.995 37.0381 183.086 37.3917ZM182.646 37.5066C182.588 37.2846 182.515 37.1056 182.427 36.9679C182.291 36.7617 182.137 36.6818 181.963 36.7274C181.785 36.7748 181.687 36.9196 181.67 37.1635C181.657 37.3285 181.68 37.5224 181.738 37.7462C181.894 38.349 182.125 38.6105 182.429 38.5307C182.606 38.4841 182.701 38.3367 182.717 38.0884C182.727 37.9269 182.704 37.733 182.646 37.5066Z" fill="#CDE0FB"/>
<path opacity="0.5" d="M185.056 36.8717C185.148 37.2253 185.162 37.5306 185.098 37.7886C185.018 38.1142 184.818 38.3195 184.498 38.4037C184.178 38.488 183.904 38.4081 183.676 38.1642C183.496 37.9703 183.36 37.6974 183.269 37.3437C183.178 36.9901 183.163 36.6856 183.225 36.4312C183.305 36.1056 183.506 35.9003 183.828 35.8152C184.151 35.7301 184.426 35.8099 184.653 36.0539C184.831 36.246 184.965 36.518 185.056 36.8717ZM184.616 36.9866C184.559 36.7646 184.486 36.5856 184.397 36.4478C184.262 36.2416 184.107 36.1618 183.934 36.2074C183.755 36.2548 183.658 36.3996 183.641 36.6435C183.628 36.8085 183.65 37.0024 183.709 37.2262C183.865 37.829 184.095 38.0905 184.4 38.0097C184.576 37.9632 184.672 37.8158 184.687 37.5675C184.698 37.4069 184.674 37.213 184.616 36.9866Z" fill="#CDE0FB"/>
<path opacity="0.5" d="M187.027 36.3512C187.118 36.7048 187.132 37.0101 187.069 37.2681C186.989 37.5937 186.789 37.799 186.469 37.8832C186.148 37.9675 185.875 37.8876 185.647 37.6437C185.466 37.4498 185.331 37.1769 185.24 36.8232C185.148 36.4696 185.134 36.1651 185.195 35.9107C185.275 35.5851 185.477 35.3798 185.799 35.2947C186.122 35.2096 186.396 35.2894 186.624 35.5333C186.801 35.7255 186.935 35.9975 187.027 36.3512ZM186.586 36.4661C186.528 36.2441 186.456 36.0651 186.367 35.9273C186.231 35.7211 186.077 35.6413 185.903 35.6869C185.725 35.7343 185.628 35.8791 185.611 36.123C185.597 36.288 185.62 36.4819 185.678 36.7057C185.835 37.3085 186.065 37.57 186.37 37.4901C186.546 37.4436 186.641 37.2962 186.657 37.0479C186.668 36.8855 186.645 36.6916 186.586 36.4661Z" fill="#CDE0FB"/>
<path opacity="0.5" d="M188.997 35.8309C189.089 36.1845 189.103 36.4899 189.039 36.7479C188.959 37.0734 188.76 37.2787 188.439 37.363C188.119 37.4472 187.845 37.3674 187.617 37.1234C187.437 36.9295 187.301 36.6566 187.21 36.303C187.119 35.9493 187.104 35.6449 187.166 35.3904C187.246 35.0649 187.447 34.8595 187.769 34.7744C188.093 34.6893 188.367 34.7691 188.594 35.0131C188.771 35.2052 188.905 35.4773 188.997 35.8309ZM188.556 35.9458C188.499 35.7238 188.426 35.5448 188.337 35.4071C188.202 35.2009 188.047 35.121 187.874 35.1666C187.696 35.214 187.598 35.3588 187.581 35.6027C187.568 35.7677 187.591 35.9616 187.649 36.1854C187.805 36.7882 188.035 37.0497 188.34 36.9699C188.516 36.9233 188.612 36.7759 188.627 36.5276C188.639 36.3653 188.615 36.1714 188.556 35.9458Z" fill="#CDE0FB"/>
</g>
<path opacity="0.5" d="M163.017 35.5894L153.627 38.07C153.221 38.1771 152.802 37.9296 152.696 37.519C152.59 37.1092 152.835 36.6854 153.241 36.5783L162.632 34.0977C163.037 33.9906 163.457 34.2381 163.563 34.6488C163.669 35.0594 163.424 35.4824 163.017 35.5894Z" fill="#CDE0FB"/>
<g opacity="0.5">
<g opacity="0.5">
<path opacity="0.5" d="M185.735 31.2857C185.664 31.0146 185.507 30.7909 185.3 30.6347C185.24 30.5899 185.154 30.6075 185.117 30.6733L185.085 30.7303C185.054 30.7847 185.068 30.8549 185.117 30.8926C185.267 31.0058 185.38 31.169 185.432 31.3656C185.483 31.5622 185.462 31.7605 185.386 31.9333C185.361 31.9912 185.384 32.0588 185.437 32.0904L185.492 32.1237C185.557 32.1623 185.64 32.136 185.67 32.0667C185.776 31.8307 185.805 31.5569 185.735 31.2857Z" fill="#CDE0FB"/>
</g>
<g opacity="0.5">
<path opacity="0.5" d="M186.343 31.125C186.228 30.6792 185.959 30.316 185.608 30.0773C185.549 30.0369 185.467 30.0571 185.431 30.1203L185.413 30.1527C185.38 30.2107 185.398 30.2826 185.453 30.3203C185.746 30.5213 185.971 30.8258 186.067 31.1978C186.164 31.5699 186.115 31.9463 185.957 32.2666C185.927 32.3263 185.947 32.3982 186.004 32.4324L186.035 32.4517C186.097 32.4886 186.177 32.4667 186.21 32.4017C186.4 32.0209 186.459 31.5707 186.343 31.125Z" fill="#CDE0FB"/>
</g>
<g opacity="0.5">
<path opacity="0.5" d="M186.877 30.9847C186.723 30.3889 186.357 29.9054 185.881 29.593C185.822 29.5536 185.742 29.5746 185.706 29.6369C185.673 29.6948 185.69 29.7685 185.746 29.8045C186.171 30.0827 186.498 30.5153 186.635 31.0479C186.773 31.5805 186.698 32.1193 186.462 32.5721C186.431 32.6309 186.451 32.7046 186.508 32.7388C186.568 32.7756 186.649 32.7537 186.682 32.6905C186.946 32.1833 187.03 31.5805 186.877 30.9847Z" fill="#CDE0FB"/>
</g>
<g opacity="0.5">
<path opacity="0.5" d="M187.454 30.8319C187.258 30.0729 186.787 29.4587 186.178 29.0699C186.118 29.0313 186.039 29.0515 186.003 29.1138L185.972 29.1691C185.939 29.227 185.957 29.3016 186.012 29.3376C186.556 29.6859 186.976 30.2344 187.151 30.9118C187.326 31.5892 187.226 32.2745 186.921 32.8475C186.89 32.9063 186.91 32.98 186.967 33.0151L187.022 33.0484C187.082 33.0853 187.162 33.0633 187.196 33.0002C187.537 32.3587 187.65 31.5901 187.454 30.8319Z" fill="#CDE0FB"/>
</g>
</g>
</g>
</g>
<path d="M159.347 123.36H46.4763C44.8627 123.36 43.5427 122.027 43.5427 120.396V44.8728C43.5427 43.2425 44.8627 41.9087 46.4763 41.9087H159.348C160.962 41.9087 162.282 43.2425 162.282 44.8728V120.396C162.281 122.027 160.961 123.36 159.347 123.36Z" fill="#2B478B"/>
<path d="M159.603 44.7544H46.22V122.532H159.603V44.7544Z" fill="#DDE7FE"/>
<path d="M159.603 44.7544H46.22V120.466H159.603V44.7544Z" fill="#AEC3FF"/>
<path d="M14.0256 62.8729C14.0256 62.8729 13.9413 65.3693 13.6061 66.4872L10.9574 68.2509L20.9287 69.6751L18.551 66.539C18.551 66.539 17.8328 63.1923 18.2097 61.9542C18.5857 60.7161 14.0256 62.8729 14.0256 62.8729Z" fill="#FFB27D"/>
<path d="M14.0117 63.2178C14.0117 63.2169 14.8003 65.0298 16.2853 64.9894C17.7703 64.949 18.1081 63.3459 18.1081 63.3459L14.0117 63.2178Z" fill="#ED985F"/>
<path d="M13.1251 61.7508C13.1251 61.7508 12.6457 59.465 12.3105 58.7726C11.9761 58.0803 11.6965 54.9916 15.4064 54.8319C15.4064 54.8319 16.8289 54.9916 17.6096 54.5388C17.6096 54.5388 17.6096 54.9916 17.4142 55.1513C17.4142 55.1513 18.6969 54.8582 19.7017 55.9235C20.7056 56.9887 19.0321 60.7162 19.1164 61.5946L13.1251 61.7508Z" fill="#2C3A64"/>
<path d="M16.1151 64.2892C15.0391 64.2708 13.0582 62.9037 13.0582 61.2093V58.5663C13.0582 57.9477 13.5098 57.4414 14.0621 57.4414H18.1681C18.7204 57.4414 19.172 57.9477 19.172 58.5663V61.0601C19.172 62.8361 17.3492 64.3103 16.1151 64.2892Z" fill="#FFB27D"/>
<path d="M13.0582 59.9772C13.0582 59.9772 13.0634 58.389 14.3817 58.1451C15.6991 57.9011 18.6492 58.919 19.0678 57.7607C19.4863 56.6025 13.3665 56.6226 13.0582 57.3615C12.7499 58.1003 13.0582 59.9772 13.0582 59.9772Z" fill="#2C3A64"/>
<path d="M8.70656 86.9697C8.70656 86.9697 9.12601 99.2026 8.499 106.183C7.87113 113.163 8.50335 122.877 8.50335 122.877C8.50335 122.877 10.5103 123.933 12.6857 122.877C12.6857 122.877 15.0713 109.392 15.0565 106.183C15.0409 102.765 17.6532 87.5032 17.6532 87.5032L8.70656 86.9697Z" fill="#2B478B"/>
<path d="M23.5489 122.876C23.5489 122.876 21.5428 123.932 19.3673 122.876C19.3673 122.876 16.9818 109.392 16.9965 106.182C17.0035 104.738 16.5415 101.182 16.0048 97.5553C15.271 92.5941 14.399 87.5021 14.399 87.5021L23.6921 86.9475C23.6921 86.9475 22.9253 99.2015 23.5532 106.181C24.1811 113.162 23.5489 122.876 23.5489 122.876Z" fill="#2B478B"/>
<path d="M23.581 89.0044C23.581 89.0044 19.6192 89.737 16.0048 89.737C14.4286 89.737 12.716 89.5721 11.3517 89.3975C9.8441 89.2062 8.7629 89.0044 8.7629 89.0044C8.7629 89.0044 7.9596 89.071 8.43376 85.2909C8.79416 82.4136 8.68127 79.8163 8.60137 77.1435C8.59182 76.8461 8.59877 76.4951 8.61787 76.1037C8.77158 72.9878 9.75899 67.3781 10.5111 67.0771C10.5111 67.0771 11.6296 66.6805 13.6062 66.4866C13.6062 66.5234 14.7534 68.1239 16.1151 68.3038C16.9609 67.9844 17.6253 67.7115 18.551 66.5383C19.7234 66.6682 21.0017 66.8902 22.3686 67.2412C22.3686 67.2412 22.5111 67.8353 23.0478 78.1456C23.2614 82.2302 24.7221 89.0184 23.581 89.0044Z" fill="#F99746"/>
<path d="M16.9965 106.183C17.0035 104.739 16.5414 101.183 16.0048 97.5563C16.5614 95.3898 17.917 93.3049 17.917 93.3049C19.6322 97.8976 16.9965 106.183 16.9965 106.183Z" fill="#233862"/>
<path d="M4.94008 79.3502C4.84543 79.4257 5.17543 80.2049 5.66088 81.221C6.65958 83.3085 8.31916 86.3902 8.31916 86.3902C8.0786 87.2598 7.81547 87.7977 7.81547 87.7977C5.02432 85.704 3.22406 83.9227 2.07512 82.5574C0.459839 80.6366 0.128967 79.5354 0.128967 79.5354C6.34434 67.4587 10.7178 67.0129 10.7178 67.0129L10.2011 74.9944C10.2011 74.9936 5.22754 79.1212 4.94008 79.3502Z" fill="#F99746"/>
<path d="M7.98749 86.5419C7.98749 86.5419 9.49335 85.2108 10.1073 85.9558C10.7213 86.7016 10.8325 87.873 10.3583 87.7932C9.88414 87.7133 8.90803 87.2878 8.76821 87.5001C8.62839 87.7133 8.00399 88.1205 7.81467 87.7967C7.62535 87.4738 7.98749 86.5419 7.98749 86.5419Z" fill="#FFB27D"/>
<path d="M8.3183 86.3901C8.07775 87.2597 7.81461 87.7976 7.81461 87.7976C5.02347 85.704 3.22321 83.9227 2.07428 82.5573C2.94011 82.4959 4.20454 82.2002 5.66003 81.2209C6.6596 83.3076 8.3183 86.3901 8.3183 86.3901Z" fill="#FFB27D"/>
<path d="M32.3235 79.5345C32.3235 79.5345 31.9926 80.6357 30.3774 82.5565C29.2284 83.9228 27.429 85.704 24.6379 87.7968C24.6379 87.7968 24.3739 87.2589 24.1342 86.3894C24.1342 86.3894 25.7938 83.3068 26.7925 81.2201C27.2779 80.204 27.6071 79.4248 27.5133 79.3494C27.2901 79.1721 24.2514 76.652 22.8958 75.528C22.5024 75.2015 22.2514 74.9927 22.2514 74.9927L21.9414 67.1296C21.9405 67.1305 26.1081 67.4578 32.3235 79.5345Z" fill="#F99746"/>
<path d="M24.4642 86.5419C24.4642 86.5419 22.9583 85.2108 22.3444 85.9558C21.7304 86.7016 21.6192 87.873 22.0934 87.7932C22.5675 87.7133 23.5437 87.2878 23.6835 87.5001C23.8233 87.7133 24.4477 88.1205 24.637 87.7967C24.8272 87.4738 24.4642 86.5419 24.4642 86.5419Z" fill="#FFB27D"/>
<path d="M24.1334 86.3901C24.3739 87.2597 24.6371 87.7976 24.6371 87.7976C27.4282 85.704 29.2285 83.9227 30.3774 82.5573C29.5116 82.4959 28.2471 82.2002 26.7916 81.2209C25.7929 83.3076 24.1334 86.3901 24.1334 86.3901Z" fill="#FFB27D"/>
<path d="M13.746 65.8784C13.746 65.8784 13.3031 66.0548 13.178 66.5339C13.178 66.5339 14.954 68.2774 16.1159 68.3046L13.746 65.8784Z" fill="#2B478B"/>
<path d="M16.1151 68.3048L18.4068 65.7908C18.4068 65.7908 18.8801 66.0882 18.8732 66.577C18.8741 66.577 17.1007 68.3706 16.1151 68.3048Z" fill="#2B478B"/>
<path d="M15.7017 68.1195C15.7017 68.1195 13.9518 82.5373 14.5614 84.294C14.875 85.1987 15.2953 85.9814 15.6287 86.5272C15.8684 86.9203 16.4642 86.9194 16.7021 86.5245C17.1667 85.755 17.7738 84.6406 17.7738 84.0746C17.7738 83.1585 16.4459 68.1055 16.4459 68.1055L15.7017 68.1195Z" fill="#2B478B"/>
<path d="M15.2441 67.4124C15.2441 67.4124 16.3019 67.3115 16.9454 67.3738C17.073 67.3861 17.1442 67.5195 17.0817 67.6265C16.9011 67.9363 16.5329 68.4742 16.1481 68.4742C15.6071 68.4742 14.7647 67.4484 15.2441 67.4124Z" fill="#2B478B"/>
<path d="M15.2579 62.5868C15.2579 62.5868 15.5931 63.0194 16.1785 63.0045C16.7638 62.9887 17.0391 62.5868 17.0391 62.5868C17.0391 62.5868 16.0508 62.4315 15.2579 62.5868Z" fill="white"/>
<path d="M146.26 35.9302H72.9323V114.831H146.26V35.9302Z" fill="#CFDEFF"/>
<path d="M125.482 101.546H111.51C111.498 101.546 111.488 101.536 111.488 101.524V100.652C111.488 100.64 111.498 100.63 111.51 100.63H125.482C125.494 100.63 125.504 100.64 125.504 100.652V101.524C125.504 101.536 125.494 101.546 125.482 101.546Z" fill="#2B478B"/>
<path d="M128.956 99.4638H111.511C111.5 99.4638 111.49 99.4542 111.49 99.4428V98.5679C111.49 98.5565 111.5 98.5469 111.511 98.5469H128.956C128.967 98.5469 128.977 98.5565 128.977 98.5679V99.4428C128.977 99.4542 128.967 99.4638 128.956 99.4638Z" fill="#2B478B"/>
<path d="M139.899 49.2539H79.2926V92.3388H139.899V49.2539Z" fill="#AEC3FF"/>
<path d="M93.6018 46.8223H93.5045V92.3387H93.6018V46.8223Z" fill="#1F1F89"/>
<path d="M131.553 46.8223H131.456V92.3387H131.553V46.8223Z" fill="#1F1F89"/>
<path d="M100.046 46.8223H99.9491V92.3387H100.046V46.8223Z" fill="#1F1F89"/>
<path d="M139.899 84.2773H79.2926V84.3756H139.899V84.2773Z" fill="#1F1F89"/>
<path d="M139.899 75.2603H79.2926V75.3585H139.899V75.2603Z" fill="#1F1F89"/>
<path d="M139.899 66.2434H79.2926V66.3417H139.899V66.2434Z" fill="#1F1F89"/>
<path d="M139.899 57.2266H79.2926V57.3248H139.899V57.2266Z" fill="#1F1F89"/>
<path d="M139.899 41.4626H79.2926V50.2058H139.899V41.4626Z" fill="#F78248"/>
<path d="M134.178 107.424C132.812 107.846 131.479 108.068 130.431 107.984C128.833 107.857 127.934 107.058 127.898 105.734C127.869 104.684 128.326 103.764 129.221 103.019C129.213 102.947 129.206 102.876 129.2 102.804C129.141 102.063 129.307 101.571 129.692 101.342C130.316 100.971 131.242 101.479 131.281 101.5L131.074 101.837C130.866 101.723 130.25 101.468 129.908 101.673C129.614 101.85 129.579 102.334 129.604 102.727C130.333 102.224 131.285 101.813 132.445 101.515C133.303 101.293 134.258 101.145 135.122 101.078C135.126 100.986 135.134 100.904 135.145 100.836C135.173 100.655 135.24 100.442 135.426 100.399C135.498 100.384 135.635 100.386 135.757 100.564C135.835 100.678 135.875 100.843 135.883 101.04C136.18 101.034 136.457 101.038 136.702 101.056C136.705 101.05 136.706 101.046 136.709 101.041C136.649 100.577 136.692 100.03 136.772 99.6771C136.877 99.2235 137.047 98.9945 137.286 98.9725C137.429 98.9602 137.554 99.0339 137.61 99.1647C137.744 99.4718 137.493 100.303 137.131 101.1C137.131 101.1 137.131 101.102 137.132 101.104C137.472 101.159 137.703 101.249 137.775 101.374C137.83 101.468 137.837 101.615 137.693 101.742C137.419 101.983 137.199 101.923 137.093 101.865C137.003 101.816 136.93 101.732 136.873 101.624C136.599 102.143 136.299 102.586 136.065 102.774C135.848 102.947 135.658 102.878 135.587 102.84C135.55 102.819 135.515 102.793 135.483 102.761C135.389 102.978 135.284 103.188 135.17 103.377C134.741 104.096 134.257 104.466 133.772 104.444C133.573 104.436 133.397 104.36 133.248 104.223C132.98 104.778 132.642 105.306 132.307 105.7C131.966 106.101 131.531 106.249 131.081 106.115C130.284 105.878 129.564 104.779 129.295 103.477C128.615 104.112 128.284 104.864 128.307 105.726C128.337 106.856 129.063 107.484 130.464 107.595C133.999 107.876 140.197 104.74 140.666 102.432C140.286 104.307 137.345 106.445 134.178 107.424ZM129.657 103.176C129.873 104.549 130.594 105.558 131.205 105.74C131.492 105.826 131.756 105.729 131.99 105.454C132.389 104.985 132.732 104.406 132.978 103.842C132.907 103.696 132.851 103.525 132.808 103.331C132.709 102.878 132.693 102.257 132.81 101.83C132.15 101.986 131.488 102.196 130.875 102.474C130.404 102.684 129.999 102.919 129.657 103.176ZM133.431 103.818C133.518 103.946 133.637 104.046 133.792 104.052C134.103 104.065 134.476 103.749 134.815 103.183C134.991 102.888 135.132 102.573 135.239 102.27C135.17 102.024 135.135 101.737 135.123 101.474C134.668 101.509 134.172 101.568 133.662 101.656C133.927 102.15 133.774 102.985 133.431 103.818ZM135.666 102.277C135.73 102.461 135.788 102.496 135.788 102.497C136.017 102.31 136.279 101.902 136.517 101.438C136.323 101.431 136.103 101.43 135.863 101.436C135.831 101.697 135.762 101.987 135.666 102.277ZM133.258 101.773C133.154 101.981 133.078 102.647 133.206 103.238C133.412 102.589 133.453 102.028 133.258 101.773ZM137.298 101.524C137.299 101.525 137.3 101.524 137.3 101.525C137.299 101.524 137.299 101.524 137.298 101.524ZM137.237 99.5148C137.201 99.6157 137.166 99.7579 137.14 99.9246C137.188 99.7631 137.221 99.6227 137.237 99.5148Z" fill="#F77D48"/>
<path d="M84.0117 44.2754H84.5536V47.3939H84.0117V44.2754Z" fill="#EBF3FA"/>
<path d="M85.3787 44.2754H85.8815L87.535 46.4313V44.2754H88.0682V47.3939H87.6141L85.9119 45.1757V47.3939H85.3787V44.2754Z" fill="#EBF3FA"/>
<path d="M88.597 44.2754H89.1963L90.1264 46.6718L91.0521 44.2754H91.6383L90.3556 47.4159H89.8797L88.597 44.2754Z" fill="#EBF3FA"/>
<path d="M91.8414 45.8345C91.8414 44.957 92.5119 44.2217 93.4593 44.2217C94.4077 44.2217 95.0685 44.9474 95.0685 45.8345C95.0685 46.712 94.3981 47.4473 93.4506 47.4473C92.5032 47.4473 91.8414 46.7207 91.8414 45.8345ZM94.4997 45.8345C94.4997 45.229 94.0629 44.7254 93.4506 44.7254C92.8384 44.7254 92.4102 45.2203 92.4102 45.8345C92.4102 46.4399 92.8471 46.9436 93.4593 46.9436C94.0724 46.9436 94.4997 46.4487 94.4997 45.8345Z" fill="#EBF3FA"/>
<path d="M95.7564 44.2754H96.2983V47.3939H95.7564V44.2754Z" fill="#EBF3FA"/>
<path d="M96.9869 45.8345C96.9869 44.9482 97.6435 44.2217 98.5788 44.2217C99.1476 44.2217 99.4915 44.4217 99.7868 44.7069L99.4386 45.1123C99.1919 44.8807 98.927 44.7245 98.5745 44.7245C97.9839 44.7245 97.5558 45.2141 97.5558 45.8336C97.5558 46.4443 97.983 46.9427 98.5745 46.9427C98.954 46.9427 99.1963 46.7865 99.4603 46.5373L99.8085 46.8936C99.4863 47.2323 99.1337 47.4464 98.5562 47.4464C97.6565 47.4464 96.9869 46.7383 96.9869 45.8345Z" fill="#EBF3FA"/>
<path d="M100.377 44.2754H102.666V44.765H100.92V45.5758H102.468V46.0654H100.92V46.9026H102.688V47.3922H100.378V44.2754H100.377Z" fill="#EBF3FA"/>
<path d="M68.3018 125.601L37.3266 125.406C35.9457 125.398 34.8333 124.26 34.842 122.864L35.0443 89.9688C35.053 88.5736 36.1794 87.4495 37.5602 87.4583L68.5363 87.6531C69.9171 87.6619 71.0295 88.8 71.0209 90.1951L70.8185 123.091C70.809 124.486 69.6835 125.61 68.3018 125.601Z" fill="#F77D48"/>
<path d="M67.8329 96.2664L38.1568 96.0795C37.5497 96.076 37.06 95.5749 37.0643 94.9616L37.0877 91.1542C37.0912 90.5408 37.5871 90.0459 38.1941 90.0503L67.8702 90.2372C68.4773 90.2407 68.9671 90.7418 68.9627 91.3551L68.9393 95.1625C68.9358 95.7759 68.4399 96.2708 67.8329 96.2664Z" fill="#AEC3FF"/>
<path d="M48.0851 110.927L45.5441 110.911C44.9092 110.907 44.3977 110.384 44.4021 109.742L44.4177 107.175C44.422 106.533 44.9396 106.017 45.5745 106.021L48.1155 106.037C48.7503 106.041 49.2618 106.564 49.2575 107.206L49.2419 109.773C49.2375 110.415 48.7199 110.931 48.0851 110.927Z" fill="#2B478B"/>
<path d="M54.4807 110.967L51.9397 110.951C51.3049 110.947 50.7934 110.424 50.7977 109.783L50.8133 107.215C50.8177 106.574 51.3353 106.057 51.9701 106.061L54.5111 106.077C55.146 106.081 55.6575 106.604 55.6531 107.246L55.6375 109.813C55.634 110.455 55.1156 110.972 54.4807 110.967Z" fill="#2B478B"/>
<path d="M42.0187 103.843L39.4777 103.828C38.8429 103.823 38.3314 103.3 38.3357 102.659L38.3453 101.136C38.3496 100.495 38.8672 99.9781 39.502 99.9824L42.0431 99.9982C42.6779 100.003 43.1894 100.526 43.185 101.167L43.1755 102.689C43.1712 103.331 42.6536 103.848 42.0187 103.843Z" fill="#F99746"/>
<path d="M41.9796 110.136L39.4386 110.12C38.8038 110.116 38.2923 109.592 38.2966 108.951L38.3061 107.429C38.3105 106.787 38.8281 106.27 39.4629 106.275L42.0039 106.29C42.6388 106.294 43.1503 106.818 43.1459 107.459L43.1364 108.982C43.132 109.622 42.6144 110.139 41.9796 110.136Z" fill="#F99746"/>
<path d="M48.122 104.927L45.581 104.911C44.9462 104.907 44.4347 104.384 44.439 103.742L44.4546 101.175C44.459 100.533 44.9765 100.017 45.6114 100.021L48.1524 100.037C48.7872 100.041 49.2987 100.564 49.2944 101.206L49.2787 103.772C49.2744 104.414 48.7568 104.931 48.122 104.927Z" fill="#F99746"/>
<path d="M54.5181 104.967L51.977 104.951C51.3422 104.946 50.8307 104.423 50.835 103.782L50.8507 101.215C50.855 100.574 51.3726 100.057 52.0074 100.062L54.5485 100.077C55.1833 100.082 55.6948 100.605 55.6905 101.246L55.6749 103.814C55.6705 104.454 55.1529 104.971 54.5181 104.967Z" fill="#F99746"/>
<path d="M60.6857 105.005L58.1446 104.989C57.5098 104.986 56.9983 104.462 57.0027 103.821L57.0183 101.253C57.0226 100.612 57.5402 100.095 58.175 100.099L60.7161 100.115C61.3509 100.119 61.8624 100.642 61.8581 101.284L61.8424 103.851C61.8381 104.493 61.3205 105.01 60.6857 105.005Z" fill="#F99746"/>
<path d="M66.4443 111.072L63.9032 111.056C63.2684 111.053 62.7569 110.529 62.7613 109.888L62.7769 107.32C62.7812 106.679 63.2988 106.162 63.9336 106.166L66.4747 106.182C67.1095 106.186 67.621 106.709 67.6167 107.351L67.601 109.918C67.5967 110.559 67.0791 111.076 66.4443 111.072Z" fill="#F99746"/>
<path d="M66.4816 105.071L63.9406 105.055C63.3057 105.051 62.7942 104.528 62.7986 103.886L62.8142 101.319C62.8185 100.677 63.3361 100.16 63.9709 100.165L66.512 100.181C67.1468 100.184 67.6583 100.708 67.654 101.349L67.6384 103.917C67.634 104.558 67.1164 105.074 66.4816 105.071Z" fill="#F99746"/>
<path d="M47.4742 93.0752L47.4794 92.2531L47.5975 91.9407C47.7009 91.9679 47.7651 92.0328 47.7903 92.1381L47.7834 93.2349L47.7052 93.313L47.4742 93.0752ZM47.7052 93.3903L47.7825 93.4692L47.7755 94.5661C47.7486 94.6705 47.6844 94.7354 47.5801 94.7609L47.4655 94.4467L47.4707 93.6245L47.7052 93.3903Z" fill="#2B478B"/>
<path d="M48.8349 92.34L48.8306 93.0841L48.5961 93.3175L48.5188 93.2385L48.5249 92.2206L48.8349 92.34ZM48.5119 94.4924L48.5179 93.4746L48.5961 93.3965L48.8271 93.6325L48.8228 94.3766L48.5119 94.4924ZM49.8666 94.775L48.7038 94.768C48.6004 94.7416 48.5362 94.6758 48.511 94.5705L48.8219 94.4547L49.752 94.4609L49.8666 94.775ZM49.7659 92.268L48.8393 92.2619L48.5301 92.1426C48.5561 92.0381 48.6213 91.9732 48.7255 91.9478L49.884 91.9548L49.7659 92.268ZM49.8388 93.0902L49.844 92.268L49.9621 91.9556C50.0655 91.982 50.1298 92.0478 50.1549 92.1531L50.148 93.2499L50.0698 93.328L49.8388 93.0902ZM50.069 93.4052L50.1463 93.4842L50.1393 94.5811C50.1124 94.6855 50.0481 94.7504 49.9439 94.7759L49.8293 94.4617L49.8345 93.6395L50.069 93.4052Z" fill="#2B478B"/>
<path d="M51.1998 92.355L51.1954 93.0991L50.9618 93.3325L50.8845 93.2536L50.8906 92.2357L51.1998 92.355ZM50.8759 94.5066L50.8819 93.4887L50.9601 93.4106L51.1911 93.6467L51.1868 94.3908L50.8759 94.5066ZM52.2315 94.79L51.0687 94.783C50.9653 94.7567 50.901 94.6909 50.8759 94.5856L51.1868 94.4697L52.1169 94.4759L52.2315 94.79ZM52.1299 92.2822L51.2033 92.2761L50.8941 92.1567C50.9201 92.0523 50.9853 91.9874 51.0895 91.9619L52.248 91.9689L52.1299 92.2822ZM52.2028 93.1053L52.208 92.2831L52.3262 91.9707C52.4295 91.997 52.4938 92.0628 52.5189 92.1681L52.512 93.265L52.4338 93.3431L52.2028 93.1053ZM52.433 93.4203L52.5103 93.4992L52.5033 94.5961C52.4764 94.7005 52.4121 94.7654 52.3079 94.7909L52.1933 94.4768L52.1985 93.6546L52.433 93.4203Z" fill="#2B478B"/>
<path d="M53.5636 92.3697L53.5593 93.1138L53.3257 93.3472L53.2484 93.2682L53.2544 92.2503L53.5636 92.3697ZM53.2405 94.5212L53.2466 93.5034L53.3248 93.4253L53.5558 93.6613L53.5514 94.4054L53.2405 94.5212ZM54.5953 94.8047L53.4325 94.7977C53.3291 94.7713 53.2649 94.7055 53.2397 94.6011L53.5506 94.4853L54.4807 94.4914L54.5953 94.8047ZM54.4946 92.2968L53.5679 92.2907L53.2588 92.1714C53.2848 92.0669 53.35 92.002 53.4542 91.9766L54.6127 91.9836L54.4946 92.2968ZM54.5666 93.1199L54.5719 92.2977L54.69 91.9853C54.7933 92.0125 54.8576 92.0775 54.8828 92.1828L54.8758 93.2796L54.7976 93.3577L54.5666 93.1199ZM54.7976 93.4349L54.8749 93.5139L54.868 94.6108C54.8411 94.7152 54.7768 94.7801 54.6726 94.8055L54.558 94.4914L54.5632 93.6692L54.7976 93.4349Z" fill="#2B478B"/>
<path d="M55.9283 92.3848L55.924 93.1289L55.6904 93.3623L55.6131 93.2833L55.6191 92.2655L55.9283 92.3848ZM55.6044 94.5364L55.6105 93.5185L55.6886 93.4404L55.9196 93.6764L55.9153 94.4205L55.6044 94.5364ZM56.9591 94.8198L55.7963 94.8128C55.693 94.7864 55.6287 94.7206 55.6035 94.6153L55.9144 94.4995L56.8445 94.5057L56.9591 94.8198ZM56.8584 92.312L55.9318 92.3058L55.6226 92.1865C55.6487 92.0821 55.7138 92.0171 55.818 91.9917L56.9765 91.9987L56.8584 92.312ZM56.9313 93.135L56.9366 92.3128L57.0547 92.0005C57.158 92.0268 57.2223 92.0926 57.2475 92.197L57.2405 93.2939L57.1623 93.372L56.9313 93.135ZM57.1615 93.4501L57.2388 93.529L57.2318 94.6259C57.2049 94.7303 57.1406 94.7952 57.0364 94.8207L56.9218 94.5065L56.927 93.6843L57.1615 93.4501Z" fill="#2B478B"/>
<path d="M58.2922 92.3997L58.2878 93.1438L58.0542 93.3772L57.9769 93.2982L57.983 92.2804L58.2922 92.3997ZM57.9691 94.5513L57.9752 93.5334L58.0534 93.4553L58.2844 93.6914L58.28 94.4355L57.9691 94.5513ZM59.3239 94.8338L58.1611 94.8268C58.0577 94.8005 57.9934 94.7347 57.9683 94.6294L58.2792 94.5136L59.2093 94.5197L59.3239 94.8338ZM59.2232 92.3269L58.2965 92.3207L57.9874 92.2014C58.0134 92.097 58.0786 92.032 58.1828 92.0066L59.3413 92.0136L59.2232 92.3269ZM59.2953 93.1499L59.3005 92.3278L59.4186 92.0154C59.5219 92.0417 59.5862 92.1075 59.6114 92.2128L59.6044 93.3097L59.5263 93.3877L59.2953 93.1499ZM59.5263 93.465L59.6035 93.5439L59.5966 94.6408C59.5697 94.7452 59.5054 94.8101 59.4012 94.8356L59.2866 94.5214L59.2918 93.6992L59.5263 93.465Z" fill="#2B478B"/>
<path d="M60.6561 92.4146L60.6517 93.1587L60.4181 93.3921L60.3408 93.3131L60.3469 92.2953L60.6561 92.4146ZM60.333 94.5662L60.3391 93.5483L60.4173 93.4702L60.6483 93.7062L60.6439 94.4503L60.333 94.5662ZM61.6878 94.8487L60.5249 94.8417C60.4216 94.8154 60.3573 94.7495 60.3322 94.6443L60.6431 94.5284L61.5731 94.5346L61.6878 94.8487ZM61.587 92.3418L60.6604 92.3356L60.3513 92.2163C60.3773 92.1119 60.4424 92.0469 60.5467 92.0215L61.7052 92.0285L61.587 92.3418ZM61.6591 93.1648L61.6643 92.3426L61.7824 92.0303C61.8858 92.0575 61.9501 92.1224 61.9752 92.2277L61.9683 93.3245L61.8901 93.4026L61.6591 93.1648ZM61.8901 93.4798L61.9674 93.5588L61.9605 94.6557C61.9336 94.7601 61.8693 94.825 61.7651 94.8505L61.6504 94.5363L61.6557 93.7141L61.8901 93.4798Z" fill="#2B478B"/>
<path d="M63.0208 92.4292L63.0164 93.1733L62.782 93.4067L62.7047 93.3278L62.7108 92.3099L63.0208 92.4292ZM62.6969 94.5808L62.7029 93.5629L62.7811 93.4848L63.0121 93.7209L63.0078 94.465L62.6969 94.5808ZM64.0516 94.8634L62.8888 94.8563C62.7854 94.83 62.7212 94.7642 62.696 94.6589L63.0069 94.5431L63.937 94.5492L64.0516 94.8634ZM63.9509 92.3564L63.0243 92.3503L62.7151 92.2309C62.7411 92.1265 62.8063 92.0616 62.9105 92.0361L64.069 92.0431L63.9509 92.3564ZM64.0238 93.1795L64.029 92.3573L64.1472 92.0449C64.2505 92.0712 64.3148 92.137 64.3399 92.2423L64.333 93.3392L64.2548 93.4173L64.0238 93.1795ZM64.254 93.4945L64.3313 93.5735L64.3243 94.6703C64.2974 94.7747 64.2331 94.8397 64.1289 94.8651L64.0143 94.551L64.0195 93.7288L64.254 93.4945Z" fill="#2B478B"/>
<path d="M65.3847 92.4444L65.3804 93.1885L65.1459 93.4219L65.0686 93.3429L65.0747 92.325L65.3847 92.4444ZM65.0617 94.5959L65.0677 93.5781L65.1459 93.5L65.3769 93.736L65.3726 94.4801L65.0617 94.5959ZM66.4164 94.8785L65.2536 94.8715C65.1502 94.8451 65.086 94.7793 65.0608 94.674L65.3717 94.5582L66.3018 94.5643L66.4164 94.8785ZM66.3157 92.3715L65.3891 92.3654L65.0799 92.2461C65.1059 92.1417 65.1711 92.0767 65.2753 92.0513L66.4338 92.0583L66.3157 92.3715ZM66.3878 93.1946L66.393 92.3724L66.5111 92.06C66.6144 92.0872 66.6787 92.1522 66.7039 92.2575L66.6969 93.3543L66.6188 93.4324L66.3878 93.1946ZM66.6188 93.5096L66.6961 93.5886L66.6891 94.6854C66.6622 94.7898 66.5979 94.8548 66.4937 94.8802L66.3791 94.5661L66.3843 93.7439L66.6188 93.5096Z" fill="#2B478B"/>
<path d="M97.7228 110.309V111.582C97.7228 111.684 97.6863 111.778 97.6238 111.856C97.5578 111.939 97.464 112.004 97.3529 112.04C97.319 112.051 97.2834 112.059 97.2469 112.064C97.2139 112.07 97.18 112.073 97.1453 112.073H73.2374C73.1418 112.073 73.0507 112.053 72.9708 112.017C72.8127 111.947 72.6963 111.815 72.6659 111.661C72.6633 111.65 72.6633 111.64 72.6616 111.629C72.6607 111.621 72.6599 111.615 72.6599 111.607C72.659 111.599 72.659 111.591 72.659 111.582V110.309C72.659 110.301 72.659 110.291 72.6599 110.283C72.6607 110.267 72.6625 110.252 72.6651 110.236C72.7076 110.001 72.9491 109.818 73.2374 109.818H97.1453C97.18 109.818 97.2139 109.821 97.2469 109.826C97.2834 109.831 97.319 109.84 97.3529 109.851C97.464 109.887 97.5587 109.951 97.6238 110.035C97.6863 110.113 97.7228 110.207 97.7228 110.309Z" fill="#FFB93E"/>
<path d="M85.9813 112.072H73.1728C73.0869 112.072 73.0061 112.052 72.9358 112.016C72.7942 111.946 72.69 111.814 72.6639 111.66C72.6613 111.649 72.6613 111.639 72.6596 111.628C72.6587 111.62 72.6579 111.614 72.6579 111.606C72.657 111.598 72.657 111.59 72.657 111.581V110.308C72.657 110.3 72.657 110.29 72.6579 110.282C72.6587 110.266 72.6605 110.25 72.6631 110.235C72.6665 110.217 72.6709 110.2 72.6761 110.182C72.7343 109.973 72.9349 109.816 73.1728 109.816H84.4086C84.5832 110.462 84.9835 111.349 85.9032 112.016C85.9284 112.035 85.9544 112.053 85.9813 112.072Z" fill="#FFA412"/>
<path d="M94.8125 109.817H94.5406V112.072H94.8125V109.817Z" fill="#FFA412"/>
<path d="M93.8927 109.817H93.6209V112.072H93.8927V109.817Z" fill="#FFA412"/>
<path d="M92.7899 109.817H92.5181V112.072H92.7899V109.817Z" fill="#FFA412"/>
<path d="M91.099 109.817H90.8271V112.072H91.099V109.817Z" fill="#FFA412"/>
<path d="M89.3109 109.817H89.0391V112.072H89.3109V109.817Z" fill="#FFA412"/>
<path d="M86.5701 109.817H86.2983V112.072H86.5701V109.817Z" fill="#FFA412"/>
<path d="M84.004 109.817H83.7321V112.072H84.004V109.817Z" fill="#FFA412"/>
<path d="M81.713 109.817H81.4412V112.072H81.713V109.817Z" fill="#FFA412"/>
<path d="M95.6878 109.817H95.416V112.072H95.6878V109.817Z" fill="#FFA412"/>
<path d="M96.2662 109.817H95.9944V112.072H96.2662V109.817Z" fill="#FFA412"/>
<path d="M96.8246 109.817H96.5528V112.072H96.8246V109.817Z" fill="#FFA412"/>
<path d="M97.2449 109.825V112.064C97.2119 112.07 97.178 112.072 97.1433 112.072H96.9731V109.817H97.1433C97.178 109.817 97.2119 109.82 97.2449 109.825Z" fill="#FFA412"/>
<path d="M97.6226 110.034V111.856C97.5567 111.938 97.462 112.003 97.3509 112.039V109.85C97.462 109.886 97.5567 109.951 97.6226 110.034Z" fill="#FFA412"/>
<path d="M99.6748 108.053V109.328C99.6748 109.429 99.6383 109.522 99.5758 109.6L99.5749 109.601C99.5671 109.612 99.5576 109.622 99.5489 109.631C99.5124 109.671 99.4699 109.704 99.4212 109.732C99.3969 109.746 99.3717 109.758 99.3448 109.769C99.3439 109.769 99.3439 109.77 99.3439 109.77C99.3309 109.775 99.3179 109.78 99.304 109.785C99.2701 109.796 99.2345 109.804 99.198 109.809C99.165 109.815 99.1312 109.817 99.0964 109.817H75.1885C74.9002 109.817 74.6587 109.636 74.6162 109.4C74.6136 109.384 74.6118 109.368 74.611 109.351C74.6101 109.343 74.6101 109.335 74.6101 109.327V108.053C74.6101 108.045 74.6101 108.036 74.611 108.028C74.6249 107.789 74.8428 107.595 75.1207 107.567C75.1433 107.564 75.1659 107.563 75.1885 107.563H99.0964C99.1312 107.563 99.165 107.566 99.198 107.571C99.2345 107.577 99.2701 107.585 99.304 107.596C99.4012 107.628 99.4846 107.681 99.5489 107.75C99.5576 107.76 99.5671 107.769 99.5749 107.78L99.5758 107.781C99.6383 107.859 99.6748 107.952 99.6748 108.053Z" fill="#FFB93E"/>
<path d="M87.9365 109.817H75.128C74.89 109.817 74.6894 109.661 74.6312 109.452C74.626 109.435 74.6208 109.418 74.6182 109.4C74.6156 109.384 74.6139 109.368 74.613 109.351C74.6121 109.343 74.6121 109.335 74.6121 109.327V108.053C74.6121 108.045 74.6121 108.036 74.613 108.028C74.626 107.789 74.8205 107.595 75.0672 107.567C75.0872 107.564 75.1071 107.563 75.1288 107.563H86.3646C86.3646 107.564 86.3655 107.566 86.3655 107.567C86.5444 108.23 86.963 109.146 87.9365 109.817Z" fill="#FFA412"/>
<path d="M96.7665 107.562H96.4947V109.817H96.7665V107.562Z" fill="#FFA412"/>
<path d="M95.8468 107.562H95.575V109.817H95.8468V107.562Z" fill="#FFA412"/>
<path d="M94.7439 107.562H94.472V109.817H94.7439V107.562Z" fill="#FFA412"/>
<path d="M93.053 107.562H92.7811V109.817H93.053V107.562Z" fill="#FFA412"/>
<path d="M91.265 107.562H90.9932V109.817H91.265V107.562Z" fill="#FFA412"/>
<path d="M88.5241 107.562H88.2523V109.817H88.5241V107.562Z" fill="#FFA412"/>
<path d="M85.958 107.562H85.6862V109.817H85.958V107.562Z" fill="#FFA412"/>
<path d="M83.667 107.563H83.3952V109.818H83.667V107.563Z" fill="#FFA412"/>
<path d="M97.6418 107.562H97.37V109.817H97.6418V107.562Z" fill="#FFA412"/>
<path d="M98.2202 107.562H97.9484V109.817H98.2202V107.562Z" fill="#FFA412"/>
<path d="M98.7786 107.562H98.5067V109.817H98.7786V107.562Z" fill="#FFA412"/>
<path d="M99.1989 107.569V109.808C99.1659 109.813 99.132 109.816 99.0973 109.816H98.9271V107.561H99.0973C99.132 107.561 99.1659 107.564 99.1989 107.569Z" fill="#FFA412"/>
<path d="M99.5759 107.778V109.6C99.5099 109.682 99.4152 109.747 99.3041 109.783V107.594C99.4161 107.631 99.5108 107.696 99.5759 107.778Z" fill="#FFA412"/>
<path d="M96.5363 105.801V107.074C96.5363 107.176 96.5007 107.27 96.4373 107.348C96.3713 107.431 96.2766 107.496 96.1654 107.532C96.1316 107.543 96.096 107.551 96.0604 107.557C96.0491 107.558 96.0378 107.559 96.0265 107.561H96.0222C96.0143 107.563 96.0074 107.563 95.9996 107.564C95.9952 107.564 95.9909 107.564 95.9866 107.564C95.977 107.564 95.9683 107.565 95.9579 107.565H72.0508C71.8433 107.565 71.66 107.471 71.5584 107.331C71.508 107.263 71.4776 107.184 71.4724 107.099C71.4716 107.091 71.4716 107.082 71.4716 107.074V105.801C71.4716 105.792 71.4716 105.783 71.4724 105.775C71.4855 105.566 71.6548 105.39 71.8823 105.331C71.9353 105.317 71.9918 105.309 72.0508 105.309H95.9579C95.9683 105.309 95.9779 105.31 95.9883 105.31C95.9935 105.31 95.9987 105.311 96.0031 105.312C96.0222 105.313 96.0413 105.315 96.0595 105.318C96.0951 105.323 96.1316 105.332 96.1646 105.343C96.182 105.348 96.1985 105.354 96.2141 105.361H96.215C96.2783 105.387 96.3348 105.423 96.3826 105.467C96.3834 105.468 96.3843 105.469 96.3852 105.47C96.3878 105.473 96.3895 105.473 96.3921 105.476C96.4086 105.491 96.4234 105.508 96.4373 105.525C96.5007 105.605 96.5363 105.699 96.5363 105.801Z" fill="#FFB93E"/>
<path d="M84.798 107.565H71.9904C71.8106 107.565 71.6508 107.476 71.5587 107.342C71.5092 107.271 71.4788 107.189 71.4745 107.099C71.4736 107.091 71.4736 107.082 71.4736 107.074V105.801C71.4736 105.792 71.4736 105.783 71.4745 105.775C71.4875 105.551 71.6595 105.365 71.8861 105.32C71.92 105.313 71.9547 105.309 71.9904 105.309H83.2252C83.2296 105.327 83.2348 105.344 83.24 105.361C83.4258 106.019 83.8462 106.905 84.7928 107.561C84.7936 107.562 84.7962 107.564 84.798 107.565Z" fill="#FFA412"/>
<path d="M93.6271 105.31H93.3552V107.565H93.6271V105.31Z" fill="#FFA412"/>
<path d="M92.7074 105.31H92.4355V107.565H92.7074V105.31Z" fill="#FFA412"/>
<path d="M91.6044 105.31H91.3326V107.565H91.6044V105.31Z" fill="#FFA412"/>
<path d="M89.9144 105.31H89.6426V107.565H89.9144V105.31Z" fill="#FFA412"/>
<path d="M88.1263 105.31H87.8545V107.565H88.1263V105.31Z" fill="#FFA412"/>
<path d="M85.3855 105.31H85.1137V107.565H85.3855V105.31Z" fill="#FFA412"/>
<path d="M82.8194 105.31H82.5475V107.565H82.8194V105.31Z" fill="#FFA412"/>
<path d="M80.5275 105.312H80.2557V107.567H80.5275V105.312Z" fill="#FFA412"/>
<path d="M94.5033 105.31H94.2314V107.565H94.5033V105.31Z" fill="#FFA412"/>
<path d="M95.0816 105.31H94.8098V107.565H95.0816V105.31Z" fill="#FFA412"/>
<path d="M95.64 105.31H95.3682V107.565H95.64V105.31Z" fill="#FFA412"/>
<path d="M96.0604 105.317V107.557C96.0274 107.562 95.9935 107.564 95.9588 107.564H95.7886V105.309H95.9588C95.9927 105.309 96.0265 105.312 96.0604 105.317Z" fill="#FFA412"/>
<path d="M96.4373 105.527V107.349C96.3713 107.431 96.2766 107.496 96.1655 107.532V105.343C96.2766 105.38 96.3713 105.444 96.4373 105.527Z" fill="#FFA412"/>
<path d="M98.2939 103.597V104.871C98.2939 104.972 98.2575 105.066 98.1949 105.144C98.1289 105.227 98.0343 105.292 97.9231 105.328C97.8893 105.339 97.8537 105.348 97.8172 105.353C97.7842 105.358 97.7503 105.361 97.7156 105.361H73.8076C73.7147 105.361 73.627 105.343 73.5488 105.309C73.3743 105.236 73.2501 105.088 73.231 104.916C73.2301 104.91 73.2301 104.903 73.2293 104.896C73.2293 104.887 73.2284 104.879 73.2284 104.871V103.597C73.2284 103.589 73.2284 103.581 73.2293 103.572C73.244 103.333 73.462 103.138 73.739 103.109C73.7616 103.107 73.7842 103.106 73.8076 103.106H97.7156C97.7503 103.106 97.7842 103.109 97.8172 103.114C97.8537 103.119 97.8893 103.128 97.9231 103.139C98.0343 103.175 98.1289 103.24 98.1949 103.323C98.2575 103.402 98.2939 103.496 98.2939 103.597Z" fill="#FFB93E"/>
<path d="M86.5557 105.363H73.7472C73.6647 105.363 73.5857 105.345 73.5171 105.311C73.3616 105.238 73.2504 105.09 73.2331 104.918C73.2322 104.912 73.2322 104.905 73.2313 104.898C73.2313 104.889 73.2305 104.881 73.2305 104.872V103.599C73.2305 103.591 73.2305 103.583 73.2313 103.574C73.2444 103.335 73.4389 103.14 73.6864 103.111C73.7064 103.109 73.7263 103.108 73.7472 103.108H84.9821C84.9821 103.109 84.983 103.111 84.983 103.111C85.1584 103.758 85.5605 104.644 86.481 105.311C86.5062 105.329 86.5305 105.345 86.5557 105.363Z" fill="#FFA412"/>
<path d="M95.3847 103.107H95.1129V105.362H95.3847V103.107Z" fill="#FFA412"/>
<path d="M94.4651 103.107H94.1933V105.362H94.4651V103.107Z" fill="#FFA412"/>
<path d="M93.3621 103.107H93.0903V105.362H93.3621V103.107Z" fill="#FFA412"/>
<path d="M91.6713 103.107H91.3995V105.362H91.6713V103.107Z" fill="#FFA412"/>
<path d="M89.8841 103.107H89.6123V105.362H89.8841V103.107Z" fill="#FFA412"/>
<path d="M87.1433 103.107H86.8715V105.362H87.1433V103.107Z" fill="#FFA412"/>
<path d="M84.5771 103.107H84.3053V105.362H84.5771V103.107Z" fill="#FFA412"/>
<path d="M82.2853 103.107H82.0135V105.362H82.2853V103.107Z" fill="#FFA412"/>
<path d="M96.261 103.107H95.9892V105.362H96.261V103.107Z" fill="#FFA412"/>
<path d="M96.8393 103.107H96.5675V105.362H96.8393V103.107Z" fill="#FFA412"/>
<path d="M97.3978 103.107H97.1259V105.362H97.3978V103.107Z" fill="#FFA412"/>
<path d="M97.8181 103.115V105.354C97.7851 105.359 97.7513 105.362 97.7165 105.362H97.5463V103.107H97.7165C97.7504 103.107 97.7842 103.109 97.8181 103.115Z" fill="#FFA412"/>
<path d="M98.1949 103.323V105.145C98.1289 105.228 98.0343 105.293 97.9231 105.329V103.139C98.0343 103.176 98.1289 103.241 98.1949 103.323Z" fill="#FFA412"/>
<path d="M99.0426 101.346V102.619C99.0426 102.721 99.0062 102.815 98.9437 102.893C98.8777 102.975 98.783 103.04 98.6718 103.076C98.638 103.088 98.6024 103.096 98.5659 103.102C98.5546 103.103 98.5433 103.105 98.532 103.106C98.5259 103.107 98.5199 103.107 98.5129 103.108C98.5068 103.109 98.5008 103.109 98.4938 103.109C98.4834 103.11 98.473 103.11 98.4634 103.11H74.5554C74.2471 103.11 73.9936 102.902 73.9779 102.644C73.9779 102.635 73.9771 102.627 73.9771 102.618V101.345C73.9771 101.336 73.9771 101.328 73.9779 101.319C73.9936 101.061 74.2471 100.854 74.5554 100.854H98.4634C98.4981 100.854 98.532 100.856 98.565 100.861C98.6015 100.867 98.6371 100.875 98.671 100.887C98.7821 100.923 98.8768 100.988 98.9428 101.07C99.0062 101.15 99.0426 101.244 99.0426 101.346Z" fill="#FFB93E"/>
<path d="M87.3023 103.112H74.4938C74.2185 103.112 73.9918 102.905 73.9779 102.646C73.9779 102.637 73.9771 102.629 73.9771 102.62V101.347C73.9771 101.338 73.9771 101.33 73.9779 101.322C73.9918 101.064 74.2185 100.856 74.4938 100.856H85.7295C85.9084 101.518 86.3253 102.434 87.2971 103.107C87.2988 103.109 87.3005 103.111 87.3023 103.112Z" fill="#FFA412"/>
<path d="M96.1334 100.855H95.8616V103.11H96.1334V100.855Z" fill="#FFA412"/>
<path d="M95.2137 100.855H94.9419V103.11H95.2137V100.855Z" fill="#FFA412"/>
<path d="M94.1108 100.855H93.839V103.11H94.1108V100.855Z" fill="#FFA412"/>
<path d="M92.4201 100.855H92.1483V103.11H92.4201V100.855Z" fill="#FFA412"/>
<path d="M90.6318 100.855H90.36V103.11H90.6318V100.855Z" fill="#FFA412"/>
<path d="M87.8911 100.855H87.6193V103.11H87.8911V100.855Z" fill="#FFA412"/>
<path d="M85.3249 100.855H85.0531V103.11H85.3249V100.855Z" fill="#FFA412"/>
<path d="M83.034 100.855H82.7621V103.11H83.034V100.855Z" fill="#FFA412"/>
<path d="M97.0087 100.855H96.7369V103.11H97.0087V100.855Z" fill="#FFA412"/>
<path d="M97.5872 100.855H97.3154V103.11H97.5872V100.855Z" fill="#FFA412"/>
<path d="M98.1455 100.855H97.8737V103.11H98.1455V100.855Z" fill="#FFA412"/>
<path d="M98.5658 100.863V103.102C98.5328 103.108 98.499 103.11 98.4642 103.11H98.294V100.855H98.4642C98.499 100.855 98.5328 100.858 98.5658 100.863Z" fill="#FFA412"/>
<path d="M98.9436 101.072V102.894C98.8776 102.976 98.7829 103.041 98.6718 103.077V100.888C98.7829 100.925 98.8776 100.989 98.9436 101.072Z" fill="#FFA412"/>
<path d="M91.4639 88.004C91.4639 88.004 90.2081 89.7905 89.0565 89.8151C87.905 89.8396 86.1542 88.9876 86.1542 88.9876C86.1542 88.9876 85.0973 86.607 85.8138 85.676C85.8138 85.676 86.5329 85.3575 87.2849 85.92C87.4143 86.0174 87.5455 86.1393 87.674 86.2964C87.8564 86.5175 88.0613 86.6439 88.2784 86.7106C89.1 86.9633 90.0752 86.3692 90.44 86.9422C90.6527 87.2757 90.8846 87.5257 91.0748 87.7021C91.3006 87.9048 91.4639 88.004 91.4639 88.004Z" fill="#FFEDDC"/>
<path d="M75.0939 100.888C75.0939 100.888 79.5324 90.021 87.5211 89.814C87.5211 89.814 94.8959 90.6423 95.3058 100.888H75.0939Z" fill="#FFEDDC"/>
<path d="M85.3327 90.1467C85.3327 90.1467 88.5346 90.8662 89.5229 90.4433C89.5229 90.4433 89.6722 89.0902 88.3236 89.2797C87.4004 89.4096 86.7995 88.9612 86.446 88.7796C85.9449 88.5225 85.1989 89.5807 85.3327 90.1467Z" fill="#DB6A1D"/>
<path d="M88.1195 88.1072C87.9145 88.2626 87.2858 85.9197 87.2858 85.9197C87.4152 86.0171 87.5463 86.1391 87.6748 86.2961C87.8572 86.5172 88.0622 86.6436 88.2793 86.7103C88.281 86.7779 88.3175 87.9563 88.1195 88.1072Z" fill="#E5C1A1"/>
<path d="M91.0747 87.7013C91.0296 87.7285 89.5489 88.6244 89.3483 88.6244C89.1433 88.6244 90.4399 86.9414 90.4399 86.9414C90.6527 87.2748 90.8845 87.5258 91.0747 87.7013Z" fill="#E5C1A1"/>
<path d="M79.4291 97.8529C79.3466 97.7818 82.5702 93.0575 83.4578 93.0233C84.3453 92.989 86.3401 94.0587 87.7834 94.1965C89.2276 94.3342 90.6267 93.92 90.9002 94.7826C91.1738 95.6452 91.9241 98.7023 91.4639 99.1919C91.0036 99.6807 81.2016 99.3823 79.4291 97.8529Z" fill="#F9DDBF"/>
<path opacity="0.5" d="M82.4651 114.255C82.4643 114.261 82.4643 114.267 82.4634 114.272C82.4217 115.029 82.301 115.778 82.1047 116.507C82.1047 116.508 82.1039 116.51 82.1039 116.51C82.0752 116.616 82.0457 116.722 82.0135 116.826C81.8138 117.492 81.5498 118.14 81.2259 118.762C80.8186 119.543 80.3166 120.283 79.7244 120.961C79.7087 120.979 79.6922 120.999 79.6757 121.017C78.9349 121.855 78.0561 122.6 77.0487 123.217C76.8368 123.348 76.6197 123.472 76.3957 123.591C76.2445 123.671 76.0934 123.746 75.9406 123.82C75.7947 123.905 75.641 123.979 75.496 124.068C75.0748 124.329 74.5494 124.535 73.9771 124.7V123.708C73.9771 123.701 73.9779 123.692 73.9779 123.684C73.9788 123.667 73.9805 123.651 73.9831 123.636C73.9866 123.617 73.9918 123.6 73.997 123.581C74.057 123.373 74.2567 123.218 74.4938 123.218H71.9371C71.7 123.218 71.5003 123.062 71.4412 122.854C71.436 122.836 71.4308 122.819 71.4273 122.8C71.4247 122.784 71.423 122.769 71.4221 122.753C71.4213 122.745 71.4213 122.736 71.4213 122.727V121.454C71.4213 121.445 71.4213 121.437 71.4221 121.429C71.423 121.413 71.4247 121.397 71.4273 121.381C71.4308 121.363 71.4352 121.345 71.4412 121.328C71.5003 121.119 71.7 120.964 71.9371 120.964H72.9349C72.7934 120.893 72.6892 120.762 72.6631 120.607C72.6605 120.597 72.6605 120.586 72.6588 120.576C72.6579 120.569 72.657 120.562 72.657 120.554C72.6562 120.546 72.6562 120.537 72.6562 120.529V119.255C72.6562 119.247 72.6562 119.239 72.657 119.231C72.6579 119.215 72.6596 119.198 72.6623 119.183C72.6657 119.166 72.6701 119.148 72.6753 119.131C72.7335 118.921 72.9341 118.765 73.172 118.765H73.7452C73.5081 118.765 73.3075 118.609 73.2484 118.401C73.2432 118.383 73.238 118.365 73.2346 118.346C73.2319 118.33 73.2302 118.315 73.2293 118.299V116.975C73.2424 116.736 73.4378 116.54 73.6844 116.513H71.9883C71.7131 116.513 71.4864 116.306 71.4725 116.047C71.4716 116.039 71.4716 116.03 71.4716 116.022V114.748C71.4716 114.741 71.4716 114.731 71.4725 114.723C71.4725 114.716 71.4734 114.709 71.4742 114.703C71.4951 114.49 71.6601 114.317 71.8755 114.27C71.6436 114.242 71.4586 114.068 71.4273 113.851C71.4247 113.837 71.4239 113.823 71.423 113.809C71.4221 113.8 71.4221 113.791 71.4221 113.783V112.51C71.4221 112.501 71.4221 112.493 71.423 112.485C71.4239 112.469 71.4256 112.453 71.4282 112.437C71.4317 112.419 71.436 112.401 71.4421 112.384C71.5012 112.175 71.7009 112.02 71.938 112.02H72.9358C72.7943 111.949 72.69 111.818 72.664 111.663C72.6614 111.653 72.6614 111.642 72.6597 111.632C72.6588 111.624 72.6579 111.618 72.6579 111.61C72.657 111.602 72.657 111.593 72.657 111.584V110.311C72.657 110.303 72.657 110.294 72.6579 110.286C72.6588 110.27 72.6605 110.254 72.6631 110.238C72.6666 110.221 72.6709 110.203 72.6762 110.186C72.7343 109.977 72.9349 109.82 73.1729 109.82H75.1269C74.8889 109.82 74.6883 109.664 74.6301 109.455C74.6249 109.437 74.6197 109.42 74.6171 109.402C74.6145 109.386 74.6128 109.37 74.6119 109.354C74.611 109.346 74.611 109.337 74.611 109.329V108.055C74.611 108.047 74.611 108.038 74.6119 108.031C74.6249 107.792 74.8194 107.597 75.0661 107.569H71.9892C71.8095 107.569 71.6497 107.479 71.5576 107.346L71.5593 107.335L71.8833 105.335L71.885 105.324L72.3461 102.47C72.882 102.543 73.4108 102.651 73.9302 102.792C73.9606 102.8 73.991 102.809 74.0213 102.817C74.0231 102.817 74.0248 102.818 74.0274 102.819C74.3296 102.904 74.6284 103.001 74.9228 103.11C74.9254 103.111 74.928 103.111 74.9306 103.112C76.2854 103.611 77.5472 104.351 78.6423 105.312C78.6614 105.329 78.6814 105.346 78.6996 105.364C79.2684 105.868 79.7912 106.434 80.2558 107.058C80.3488 107.182 80.4399 107.308 80.5268 107.436C80.5563 107.479 80.585 107.521 80.6128 107.564C80.6145 107.565 80.6154 107.566 80.6154 107.567C80.7569 107.778 80.8907 107.994 81.0174 108.216C81.3171 108.739 81.5689 109.275 81.7739 109.819C82.0483 110.541 82.2402 111.277 82.3531 112.019C82.3566 112.037 82.3592 112.056 82.3618 112.075C82.4712 112.801 82.5033 113.531 82.4651 114.255Z" fill="#E2810E"/>
<path d="M76.3809 121.493C80.9732 116.853 80.9732 109.33 76.3809 104.69C71.7886 100.05 64.343 100.05 59.7507 104.69C55.1584 109.33 55.1584 116.853 59.7507 121.493C64.343 126.133 71.7886 126.133 76.3809 121.493Z" fill="#E2810E"/>
<path d="M73.2883 123.738C73.1433 123.828 72.9966 123.914 72.8463 123.997C72.7959 124.025 72.7447 124.053 72.6943 124.08C72.578 124.143 72.4625 124.203 72.3452 124.261C66.7456 127.04 59.9145 124.907 56.8706 119.327C53.9666 114.005 55.528 107.413 60.2922 103.951C60.6726 103.675 61.0721 103.418 61.4924 103.185C61.6427 103.101 61.7955 103.021 61.9475 102.945C62.096 102.87 62.2454 102.799 62.3956 102.731C62.8559 102.524 63.3239 102.35 63.7964 102.207C64.4989 101.993 65.2111 101.849 65.9258 101.773C68.1411 101.536 70.3695 101.945 72.3461 102.922C74.4434 103.958 76.2558 105.633 77.4681 107.856C80.5207 113.452 78.6396 120.449 73.2883 123.738Z" fill="#FFB93E"/>
<path d="M67.251 124.366C66.2679 124.366 65.2788 124.226 64.3079 123.942C61.6045 123.152 59.3674 121.344 58.0083 118.854C56.6492 116.364 56.3322 113.487 57.1138 110.756C57.8962 108.024 59.6843 105.764 62.149 104.391C67.2371 101.556 73.6583 103.433 76.4634 108.574C79.2684 113.715 77.4108 120.204 72.3227 123.038C70.743 123.918 69.007 124.365 67.251 124.366ZM67.2189 103.357C65.5463 103.357 63.852 103.77 62.2862 104.642C59.8876 105.978 58.1481 108.178 57.3873 110.836C56.6266 113.493 56.9349 116.292 58.2575 118.715C59.5793 121.139 61.7564 122.897 64.3869 123.666C67.0174 124.435 69.7868 124.123 72.1855 122.787C77.1364 120.029 78.9436 113.715 76.215 108.714C74.3487 105.293 70.8368 103.357 67.2189 103.357Z" fill="#FFA412"/>
<path d="M72.4182 114.749C72.3947 114.69 72.3704 114.634 72.3452 114.578C72.1542 114.154 71.9171 113.811 71.6322 113.548C71.31 113.252 70.9357 113.029 70.5093 112.88C70.0829 112.732 69.607 112.642 69.0825 112.609C68.558 112.577 67.9866 112.569 67.3691 112.587C66.9879 112.598 66.6613 112.592 66.3904 112.566C66.1203 112.542 65.8902 112.491 65.7017 112.415C65.5133 112.338 65.3595 112.233 65.2423 112.1C65.1242 111.967 65.0278 111.805 64.9505 111.613C64.8732 111.42 64.8289 111.231 64.8176 111.041C64.8064 110.853 64.8341 110.674 64.901 110.504C64.9679 110.335 65.0773 110.179 65.2293 110.035C65.3804 109.891 65.5801 109.768 65.8294 109.666C66.2879 109.478 66.7169 109.482 67.1138 109.679C67.5115 109.875 67.8346 110.285 68.0847 110.907L70.4807 109.924C70.2723 109.406 70.0109 108.968 69.6965 108.61C69.383 108.253 69.0287 107.976 68.6344 107.781C68.241 107.587 67.812 107.473 67.3483 107.439C66.8845 107.406 66.4025 107.456 65.9023 107.588L65.2241 105.9L63.898 106.444L64.5667 108.109C64.0882 108.36 63.6826 108.651 63.3491 108.984C63.0165 109.318 62.7603 109.678 62.5814 110.066C62.4025 110.453 62.3087 110.861 62.2992 111.287C62.2905 111.713 62.3747 112.147 62.5519 112.588C62.756 113.096 63.0191 113.499 63.3413 113.796C63.6635 114.092 64.0369 114.314 64.4625 114.459C64.888 114.605 65.3639 114.692 65.8902 114.721C66.4164 114.749 66.9896 114.749 67.6079 114.719C67.9666 114.699 68.2783 114.7 68.5423 114.725C68.8064 114.749 69.0348 114.8 69.2275 114.878C69.4195 114.957 69.5793 115.066 69.7069 115.208C69.8346 115.349 69.9423 115.528 70.0291 115.745C70.1064 115.938 70.1446 116.129 70.1437 116.319C70.1429 116.51 70.1003 116.692 70.0161 116.866C69.9318 117.04 69.8042 117.2 69.6357 117.349C69.4664 117.496 69.2519 117.623 68.9922 117.73C68.7655 117.823 68.5311 117.885 68.2888 117.915C68.0465 117.944 67.8103 117.921 67.5793 117.843C67.3483 117.765 67.1329 117.624 66.9314 117.42C66.7299 117.216 66.5554 116.929 66.4077 116.561L64.0126 117.543C64.2627 118.166 64.5771 118.66 64.9549 119.024C65.3326 119.388 65.7469 119.649 66.1958 119.806C66.6457 119.963 67.1155 120.031 67.6062 120.011C68.0968 119.991 68.5814 119.91 69.0591 119.769L69.6774 121.31L70.9957 120.769L70.3739 119.221C70.8524 118.97 71.2623 118.681 71.6036 118.353C71.9197 118.051 72.1672 117.724 72.3461 117.374C72.3608 117.346 72.3747 117.317 72.3878 117.289C72.5684 116.907 72.6648 116.502 72.677 116.074C72.6874 115.647 72.6014 115.205 72.4182 114.749Z" fill="#FFA412"/>
<path d="M56.3044 54.5329C56.1515 54.7119 56.1333 54.9111 56.2114 55.1234C56.2114 55.1243 56.2123 55.1252 56.2132 55.126C56.3565 55.5183 56.8254 55.9544 57.3682 56.3887C57.4377 56.4449 57.4993 56.4949 57.5532 56.5423C57.5671 56.5546 57.5818 56.5669 57.5949 56.5791C57.6062 56.5888 57.6166 56.5984 57.627 56.6081C58.1342 57.074 57.9457 57.1828 58.8576 58.1288C59.898 59.2063 60.6083 59.2212 60.8098 59.1212C60.98 59.0361 60.6283 58.4622 60.2392 57.8181C60.2201 57.7874 60.2019 57.7558 60.1828 57.7242C60.1307 57.6383 60.0795 57.5514 60.0282 57.4654C59.5714 56.6897 59.6852 56.3238 59.7833 55.1646C59.8641 54.2222 61.1963 49.8937 61.1963 49.8937L59.2154 49.5637C59.2154 49.5637 58.6439 53.0069 57.9909 53.5413C57.6418 53.8265 57.2492 53.8326 56.9131 54.0441C56.8897 54.059 56.8662 54.0739 56.8437 54.0897C56.6517 54.2187 56.4581 54.353 56.3044 54.5329Z" fill="#FFB27D"/>
<path d="M56.3044 54.5329C56.1515 54.7119 56.1333 54.9111 56.2114 55.1235C56.2114 55.1244 56.2123 55.1252 56.2132 55.1261C56.3886 55.5175 56.8454 55.9509 57.3708 56.3844C57.4394 56.4415 57.5002 56.4932 57.5541 56.5424C57.5679 56.5546 57.5827 56.5669 57.5957 56.5792C57.607 56.5889 57.6174 56.5985 57.6279 56.6082C58.135 57.0741 57.9466 57.1829 58.8584 58.1288C59.8988 59.2064 60.6092 59.2213 60.8107 59.1213C60.9809 59.0361 60.6292 58.4623 60.2401 57.8182C60.0387 57.7454 59.1025 57.3689 58.3904 56.4616C57.7633 55.6649 57.3413 54.6374 56.914 54.0442C56.8906 54.0591 56.8671 54.074 56.8445 54.0898C56.6517 54.2188 56.4581 54.3531 56.3044 54.5329Z" fill="#233862"/>
<path d="M72.2479 53.1701C72.3747 53.786 73.244 53.6772 74.2149 53.4298C75.1858 53.1823 74.9565 53.4702 76.3399 53.3052C77.7233 53.1402 78.1385 52.6164 78.1793 52.4075C78.2157 52.2224 77.5314 52.1627 76.7976 52.082C76.7056 52.0723 76.6126 52.0609 76.5197 52.0504C75.6912 51.9512 75.0807 51.416 74.3252 50.9773C73.6096 50.5622 72.5345 48.8582 72.5345 48.8582L70.637 49.024C70.637 49.024 71.6435 50.5455 72.0334 51.2072C72.2627 51.5968 72.254 52.1136 72.2288 52.5128C72.2158 52.7313 72.2027 52.9533 72.2479 53.1701Z" fill="#FFB27D"/>
<path d="M74.2149 53.4296C75.1858 53.1821 74.9566 53.4699 76.34 53.305C77.7234 53.14 78.1385 52.6162 78.1793 52.4073C78.2158 52.2222 77.5315 52.1625 76.7976 52.0818L76.7907 52.0958C76.7907 52.0958 75.9648 52.696 74.8133 52.7329C73.8745 52.7627 72.8775 52.4977 72.2297 52.5135C72.2166 52.7302 72.2036 52.9522 72.2488 53.1698C72.3747 53.7858 73.244 53.677 74.2149 53.4296Z" fill="#233862"/>
<path d="M64.888 40.9583L63.1476 45.7958L60.8749 52.1119C60.8749 52.1119 60.2471 52.1777 59.6435 52.0075C59.0877 51.8495 58.4494 51.431 58.4494 51.431C58.4494 51.431 59.0451 44.663 60.2184 40.7714C60.5189 39.7728 60.8584 38.9638 61.2353 38.5075C63.079 36.2717 64.888 40.9583 64.888 40.9583Z" fill="#ED7D2B"/>
<path d="M63.0303 33.3089C61.8649 32.9386 58.5527 33.4484 55.2266 34.1311L54.5214 32.9737L47.3239 32.4578C47.3239 32.4578 44.9869 37.7937 46.3104 41.1737C46.5049 41.6704 47.7034 41.9126 47.7034 41.9126C47.7034 41.9126 51.9205 41.9591 53.3108 41.9494C56.8888 41.924 60.8653 39.4109 61.3812 39.3021C62.2253 39.1248 62.5762 40.8315 63.4342 42.6198C64.2922 44.4081 71.4385 50.5101 71.4385 50.5101C71.4385 50.5101 72.5301 50.5136 72.98 50.3389C73.4637 50.152 73.6391 49.9116 73.6391 49.9116C73.6391 49.9116 65.6582 34.1451 63.0303 33.3089Z" fill="#F99746"/>
<path d="M53.6087 11.6347C53.0668 11.3144 52.5414 11.2705 52.2227 11.2837C51.9926 11.2925 51.7633 11.2723 51.5349 11.2433C48.8063 10.8923 47.1936 14.9068 47.1059 16.1203C46.9435 18.357 45.7755 18.7063 44.1385 20.1181C40.8549 22.9489 41.8467 26.2034 43.6608 27.4029C44.7499 28.1225 46.6543 27.3819 46.6543 27.3819C46.6813 27.4012 51.858 24.409 54.4094 22.9655C58.2462 22.3855 55.158 12.5517 53.6087 11.6347Z" fill="#233862"/>
<path d="M52.254 21.766C52.2653 21.7731 50.9965 22.2214 50.1437 21.8468C49.3413 21.4949 48.7256 20.1699 48.7377 20.169C49.1016 20.1497 49.4985 19.8251 49.792 17.7139L49.9475 17.7691L52.5597 18.6975C52.5597 18.6975 52.3765 19.5434 52.2601 20.3489C52.162 21.0246 52.1107 21.6722 52.254 21.766Z" fill="#FFB27D"/>
<path d="M52.5589 18.6976C52.5589 18.6976 52.4477 19.2907 52.2931 20.1375C50.7951 19.876 50.1637 18.5844 49.9466 17.7683L52.5589 18.6976Z" fill="#ED975D"/>
<path d="M52.9531 19.5329C52.9531 19.5329 49.3847 19.0748 49.7016 16.8338C50.0177 14.5927 49.7711 13.0246 52.062 13.2221C54.3538 13.4195 54.6743 14.3382 54.749 15.1122C54.8228 15.887 53.8892 19.5943 52.9531 19.5329Z" fill="#FFB27D"/>
<path d="M54.61 13.8874C54.61 13.8874 52.3417 15.8907 50.7907 16.0618C49.2397 16.2329 48.6483 15.7336 48.6483 15.7336C48.6483 15.7336 49.5575 14.9597 50.0994 13.7172C50.2592 13.3513 50.6005 13.0977 50.9948 13.0608C52.1037 12.9564 54.2045 12.8976 54.61 13.8874Z" fill="#233862"/>
<path d="M53.1823 13.7198C53.1823 13.7198 53.9509 14.4604 54.1949 15.0115C54.4303 15.5432 54.5093 16.82 54.3278 17.328C54.3278 17.328 55.5011 14.9825 54.8193 13.8523C54.0976 12.6537 53.1823 13.7198 53.1823 13.7198Z" fill="#233862"/>
<path d="M55.2927 27.0511C55.2362 34.3429 55.3031 32.8187 54.5189 33.5163C54.3296 33.6839 53.7955 33.7874 53.0929 33.8392C50.881 34.0033 46.9896 33.6628 46.8385 33.2504C46.3183 31.8245 46.6752 31.3779 46.2341 29.1921C46.188 28.9596 46.1316 28.7077 46.0647 28.434C45.6991 26.9335 45.35 26.4245 46.5927 24.0001C47.7199 21.8046 48.8941 20.0207 49.0009 20.0839C52.0274 21.8696 52.2592 20.3489 52.2592 20.3489C52.2592 20.3489 55.3204 23.4938 55.2927 27.0511Z" fill="#AEC3FF"/>
<path d="M63.1476 45.7957L60.8749 52.1117C60.8749 52.1117 60.2471 52.1775 59.6435 52.0073C59.0877 51.8494 58.4494 51.4308 58.4494 51.4308C58.4494 51.4308 59.0451 44.6628 60.2184 40.7712L63.1476 45.7957Z" fill="#F99746"/>
<path d="M52.2601 20.3489C52.2601 20.3489 55.3648 20.8578 55.7382 22.2047C56.1116 23.5508 58.3096 31.4665 58.3096 31.4665C58.3096 31.4665 56.7351 31.764 56.0022 31.033C55.2692 30.3021 53.4204 24.2247 53.4204 24.2247L52.2601 20.3489Z" fill="#AEC3FF"/>
<path d="M53.093 33.839C50.8811 34.0031 46.9896 33.6626 46.8385 33.2502C46.3183 31.8243 46.6752 31.3777 46.2341 29.1919L47.2797 26.1479C47.2797 26.1479 47.1268 29.5306 48.1203 30.4125C49.1121 31.2952 52.1733 32.1007 52.6579 32.8405C52.8915 33.195 53.0461 33.5521 53.093 33.839Z" fill="#8EA3ED"/>
<path d="M50.5475 32.4343C50.5475 32.4343 52.7273 31.928 53.0808 32.121C53.4342 32.3141 54.3 33.0213 54.4094 33.2679C54.5189 33.5153 53.6244 33.0854 53.3335 33.009C53.145 32.9599 52.6517 33.1363 52.4077 33.2205C51.3804 33.575 50.7473 33.4013 50.7473 33.4013L50.5475 32.4343Z" fill="#FFB27D"/>
<path d="M48.9991 20.0823C48.9991 20.0823 46.069 20.2858 45.0643 21.7232C43.6496 23.7466 40.8767 32.345 42.5085 33.4769C44.3461 34.7519 50.8341 33.7542 50.8341 33.7542C50.8341 33.7542 51.0434 32.732 50.7386 32.2406C50.4346 31.7492 45.5428 30.9867 45.3152 30.7603C45.0877 30.5339 48.1029 26.2966 48.0986 25.613C48.0942 24.9294 48.9991 20.0823 48.9991 20.0823Z" fill="#AEC3FF"/>
<path d="M53.1901 32.7346C53.1901 32.7346 53.6513 33.3278 53.8024 33.398C53.9526 33.4682 54.0499 33.4498 54.0499 33.4498L53.7381 32.8917L53.1901 32.7346Z" fill="#FFB27D"/>
<path d="M53.0807 32.1213L54.4155 32.7645C54.4155 32.7645 54.3599 32.8584 54.1958 32.8523C54.0316 32.8461 53.6182 32.6961 53.6182 32.6961L53.0807 32.1213Z" fill="#FFB27D"/>
<path d="M53.5176 34.3595L64.037 34.2849L67.146 26.3113L56.6431 26.3859L53.5176 34.3595Z" fill="#233862"/>
<path d="M64.1577 33.9741L50.2679 34.0724L50.2697 34.383L64.037 34.2847L64.1577 33.9741Z" fill="#233862"/>
<path d="M61.3535 30.3284C61.4308 30.0485 61.2693 29.823 60.9931 29.8247C60.7161 29.8265 60.4295 30.0555 60.3522 30.3354C60.2749 30.6153 60.4364 30.8408 60.7126 30.8391C60.9896 30.8364 61.2762 30.6083 61.3535 30.3284Z" fill="#EBF3FA"/>
<path d="M148.515 59.7618C147.183 59.3152 146.261 59.8785 146.261 59.8785C142.426 60.0382 142.283 64.0097 142.733 65.4882C143.366 67.5643 141.128 69.2017 143.61 70.0414C146.488 71.0163 148.904 69.4772 148.74 69.9791C157.846 70.7048 151.544 60.7788 148.515 59.7618Z" fill="#2A539B"/>
<path d="M144.537 79.0809C144.537 79.0809 144.172 79.81 143.511 80.648C142.715 81.6563 138.533 79.2634 138.893 79.0809C139.254 78.8992 141.29 73.0578 142.152 72.0224C142.95 71.0633 144.06 70.8457 144.06 70.8457L144.537 79.0809Z" fill="#2B478B"/>
<path d="M153.868 76.0409C153.868 76.0409 153.965 77.4177 153.868 79.0691C153.804 80.1642 152.708 81.6304 152.553 81.9937C152.163 82.9036 151.723 83.0519 151.723 83.0519L148.317 83.8952L147.12 84.1909L143.345 83.0519C143.345 83.0519 141.625 78.2021 142.316 75.4723C143.006 72.7425 144.061 70.8471 144.061 70.8471C144.061 70.8471 146.627 70.2645 151.153 70.5891L153.868 76.0409Z" fill="#2B478B"/>
<path d="M154.192 79.1075C154.128 80.2025 152.707 81.6311 152.552 81.9935C152.162 82.9034 151.722 83.0517 151.722 83.0517L148.317 83.895L147.408 82.6007C147.408 82.6007 152.92 81.0519 151.876 76.1416L154.192 79.1075Z" fill="#163560"/>
<path d="M143.585 83.7874C143.585 83.7874 141.716 89.6673 141.596 91.6688C141.476 93.6704 145.169 120.108 145.318 121.03C145.458 121.9 146.527 122.454 146.527 122.454C146.527 122.454 147.018 122.747 147.72 122.547C148.693 122.27 149.001 121.937 149.001 121.937C149.001 121.937 150.456 103.083 149.556 96.3475C148.655 89.612 148.645 83.7882 148.645 83.7882H143.585V83.7874Z" fill="#ED7D2B"/>
<path d="M151.506 83.6125C151.506 83.6125 154.358 87.4787 154.624 90.0927C154.89 92.7067 155.041 101.887 155.608 104.434C156.174 106.982 158.256 111.885 158.256 119.832C158.256 119.832 158.039 120.288 157.372 120.531C157.158 120.608 156.872 120.683 156.594 120.748C156.044 120.875 155.478 120.603 155.228 120.093C153.821 117.23 149.339 107.998 149.109 106.083C148.947 104.727 147.531 95.7515 144.445 90.4849C143.704 89.2205 144.9 84.1926 144.9 84.1926L151.506 83.6125Z" fill="#F99746"/>
<path d="M143.287 82.8799C143.287 82.8799 144.037 83.4801 145.528 83.5099C147.309 83.5459 151.722 83.051 151.722 83.051C151.722 83.051 151.918 83.6047 151.91 84.1891C151.91 84.1891 146.521 85.5632 143.398 84.39C143.398 84.39 142.995 83.624 143.287 82.8799Z" fill="#163560"/>
<path d="M145.101 85.0604C144.653 85.0604 144.288 84.6436 144.288 84.1311C144.288 83.6187 144.653 83.2019 145.101 83.2019C145.549 83.2019 145.914 83.6187 145.914 84.1311C145.914 84.6436 145.549 85.0604 145.101 85.0604ZM145.101 83.4739C144.801 83.4739 144.557 83.7688 144.557 84.1311C144.557 84.4935 144.801 84.7884 145.101 84.7884C145.4 84.7884 145.644 84.4935 145.644 84.1311C145.644 83.7688 145.4 83.4739 145.101 83.4739Z" fill="white"/>
<path d="M148.995 86.7515L140.894 86.8278L136.907 77.3625L145.008 77.2861L148.995 86.7515Z" fill="#D35B31"/>
<path d="M147.935 82.4734L147.341 81.7363C147.341 81.7363 146.939 81.3739 146.648 81.3125C146.356 81.2511 145.741 80.8922 145.681 80.9931C145.621 81.094 146.154 81.8153 146.154 81.8153L146.181 81.8188C145.57 82.2839 144.026 81.8732 143.835 82.0628C143.604 82.2927 144.152 82.7893 144.447 83.0684C144.741 83.3474 145.584 83.8125 146.24 83.6063C146.72 83.4553 147.476 83.3018 147.476 83.3018L147.935 82.4734Z" fill="#FFB27D"/>
<path d="M137.517 79.0279C137.517 79.0279 138.026 78.4435 138.35 78.7243C138.673 79.0051 138.264 80.3845 137.956 80.2441C137.648 80.1028 137.34 79.199 137.517 79.0279Z" fill="#FFB27D"/>
<path d="M151.153 70.5879C151.153 70.5879 153.854 70.7792 154.89 73.323C155.925 75.8659 157.829 80.0524 157.42 81.8064C157.256 82.5058 155.288 84.9276 147.082 83.3885C147.082 83.3885 147.149 82.5207 147.704 82.1144C147.704 82.1144 153.486 80.2384 153.476 79.8654C153.457 79.16 152.694 78.5492 149.465 75.285C148.586 74.397 151.153 70.5879 151.153 70.5879Z" fill="#2B478B"/>
<path d="M149.368 70.7116C149.448 70.6037 149.346 70.2597 149.218 69.6183C149.103 69.0374 148.907 68.1398 148.911 67.1289L148.74 67.1579L145.866 67.6466C145.866 67.6466 145.931 68.4232 145.934 69.155C145.934 69.1611 145.934 69.1673 145.934 69.1734C145.937 69.8087 145.764 70.7687 145.976 70.8941C147.065 71.5382 149.062 71.1275 149.368 70.7116Z" fill="#FFB27D"/>
<path d="M145.866 67.6467C145.866 67.6467 145.923 68.7418 145.925 69.4727C147.533 69.4341 148.391 67.8556 148.74 67.158L145.866 67.6467Z" fill="#E8945B"/>
<path d="M145.692 68.9526C145.692 68.9526 149.46 68.4103 149.09 66.0447C148.72 63.679 148.956 62.0162 146.535 62.2618C144.113 62.5084 143.789 63.4851 143.722 64.3055C143.655 65.1259 144.703 69.0325 145.692 68.9526Z" fill="#FFB27D"/>
<path d="M144.814 62.4793C144.814 62.4793 146.281 65.0889 147.924 65.2442C149.567 65.3996 150.185 64.8625 150.185 64.8625C150.185 64.8625 148.821 64.0851 148.302 62.4284C148.303 62.4293 145.382 61.0341 144.814 62.4793Z" fill="#2A539B"/>
<path d="M145.105 62.6635C145.105 62.6635 144.388 63.0741 144.162 63.6875C143.941 64.2868 143.795 65.0572 143.996 65.9409C143.996 65.9409 142.924 64.1798 143.626 62.9724C144.372 61.6921 145.105 62.6635 145.105 62.6635Z" fill="#2A539B"/>
</g>
<defs>
<clipPath id="clip0">
<rect width="222" height="128" fill="white" transform="translate(-15 -2)"/>
</clipPath>
</defs>
</svg>
